<svg width="50" height="51" viewBox="0 0 50 51" fill="none" xmlns="http://www.w3.org/2000/svg">
<ellipse rx="20.9876" ry="20.9876" transform="matrix(-1 8.4685e-08 8.39042e-08 1 20.9875 29.1568)" fill="#3AE7BC"/>
<ellipse rx="16.6667" ry="16.6667" transform="matrix(-1 8.4685e-08 8.39042e-08 1 33.3333 16.8112)" fill="#FF7188"/>
<path fill-rule="evenodd" clip-rule="evenodd" d="M33.3332 33.4778C24.1284 33.4778 16.6665 26.0159 16.6665 16.8112C16.6665 13.685 17.5272 10.7598 19.0246 8.25973C19.6708 8.19979 20.3256 8.16915 20.9875 8.16915C32.5787 8.16915 41.9751 17.5656 41.9751 29.1568C41.9751 29.8187 41.9445 30.4735 41.8846 31.1198C39.3845 32.6171 36.4593 33.4778 33.3332 33.4778Z" fill="#2E57DB"/>
</svg>
