<svg width="50" height="50" viewBox="0 0 50 50" fill="none" xmlns="http://www.w3.org/2000/svg">
<path d="M13.9646 18.1228C9.26962 21.4795 9.26962 28.5205 13.9646 31.8772L37.1832 48.4778C42.5646 52.3254 50.0001 48.4354 50.0001 41.7726V8.22739C50.0001 1.56456 42.5646 -2.32538 37.1832 1.52215L13.9646 18.1228Z" fill="#3AE7BC"/>
<path d="M25.7267 18.1238C30.4216 21.4805 30.4216 28.5215 25.7267 31.8782L10.5165 42.7531C6.10092 45.9101 1.02268e-06 42.7183 8.76532e-07 37.2513L0 12.7507C-1.46144e-07 7.28375 6.10093 4.09197 10.5165 7.24896L25.7267 18.1238Z" fill="#FF7188"/>
<path fill-rule="evenodd" clip-rule="evenodd" d="M11.0786 29.8136C7.79216 27.4639 7.79216 22.5352 11.0786 20.1855L19.8449 13.9178L28.6123 20.1863C31.8987 22.536 31.8987 27.4647 28.6123 29.8143L19.846 36.082L11.0786 29.8136Z" fill="#2E57DB"/>
</svg>
