<svg width="65" height="42" viewBox="0 0 65 42" fill="none" xmlns="http://www.w3.org/2000/svg">
<path fill-rule="evenodd" clip-rule="evenodd" d="M39.2772 13.3147C39.278 13.319 39.278 13.3234 39.2772 13.3277V13.3451C36.3902 17.3772 34.8572 22.0508 34.8572 26.8222C34.8572 31.5936 36.3902 36.2671 39.2772 40.2993L39.3044 40.3383C39.4168 40.5145 39.4718 40.7147 39.4637 40.9167C39.4637 41.1993 39.3389 41.4706 39.1159 41.6729C38.8929 41.8755 38.5891 41.9928 38.2696 42H17.1634C12.6114 42 8.24581 40.4022 5.02705 37.558C1.80829 34.7138 0 30.8563 0 26.8341C0 22.8118 1.80829 18.9543 5.02705 16.1101C8.24581 13.2659 12.6114 11.6682 17.1634 11.6682H38.2499C38.572 11.6721 38.8796 11.788 39.1058 11.9907C39.3319 12.1935 39.4588 12.4667 39.4588 12.7514C39.4573 12.9502 39.3946 13.145 39.2772 13.3147Z" fill="#FF7188"/>
<path fill-rule="evenodd" clip-rule="evenodd" d="M64.4561 2.05226C60.189 4.51047 56.6399 8.10004 54.178 12.4477C51.7158 16.7954 50.4307 21.7424 50.4561 26.7742C50.4483 31.534 51.5978 36.22 53.8004 40.4058C53.8816 40.5624 53.9244 40.7369 53.925 40.9144C53.928 41.1919 53.8265 41.4597 53.6419 41.6618C53.4571 41.8639 53.2035 41.9843 52.9342 41.998H38.3607C33.0569 41.8301 28.0249 39.5439 24.3311 35.6241C20.6371 31.7046 18.5713 26.459 18.5713 20.999C18.5713 15.539 20.6371 10.2935 24.3311 6.37381C28.0249 2.45406 33.0569 0.168039 38.3607 0H63.9683C64.1054 0.00172655 64.241 0.0312421 64.3671 0.0868661C64.4932 0.14249 64.6073 0.223126 64.7032 0.324155C64.7989 0.425184 64.8744 0.544645 64.9255 0.675728C64.9763 0.806785 65.0017 0.946889 65 1.08805C65.002 1.28423 64.9526 1.47735 64.8568 1.64707C64.7613 1.81676 64.6228 1.95674 64.4561 2.05226Z" fill="#3AE7BC"/>
<path fill-rule="evenodd" clip-rule="evenodd" d="M37.3712 42H38.3398C38.6403 41.9928 38.9263 41.8755 39.1362 41.6729C39.3461 41.4706 39.4635 41.1993 39.4635 40.9167C39.4711 40.7147 39.4194 40.5145 39.3136 40.3383L39.288 40.2993C36.5708 36.2671 35.128 31.5936 35.128 26.8222C35.128 22.0508 36.5708 17.3772 39.288 13.3451V13.3277C39.2887 13.3234 39.2887 13.319 39.288 13.3147C39.3985 13.145 39.4575 12.9502 39.4589 12.7514C39.4589 12.4667 39.3395 12.1935 39.1267 11.9907C38.9138 11.788 38.6243 11.6721 38.3211 11.6682H20.5903C19.274 14.5436 18.5713 17.7339 18.5713 21.001C18.5713 26.461 20.5338 31.7066 24.0431 35.6261C27.5522 39.5459 32.3325 41.832 37.3712 42Z" fill="#2E57DB"/>
</svg>
