<svg width="0" height="0" class="hidden">
    <symbol viewBox="0 0 40 34" xmlns="http://www.w3.org/2000/svg" id="subscribe-40-34">
       <path fill-rule="evenodd" clip-rule="evenodd" d="M40 3.00204C40 0.821476 37.7452 -0.62993 35.7589 0.271986L1.4664 15.8427C-0.671565 16.8134 -0.412274 19.928 1.8568 20.5323L12.5133 23.3702C13.389 23.6034 13.9984 24.396 13.9984 25.3018V31.4964C13.9984 33.926 17.1165 34.9265 18.5315 32.951L22.2285 27.7894C22.9453 26.7887 24.2011 26.3273 25.3957 26.6258L36.2722 29.3435C38.1657 29.8166 40 28.3852 40 26.4344V3.00204ZM36.5862 2.09202C37.2483 1.79138 37.9999 2.27519 37.9999 3.00204V26.4344C37.9999 27.0847 37.3885 27.5618 36.7573 27.4041L25.8808 24.6864C23.8898 24.1889 21.7968 24.9579 20.6022 26.6257L16.9052 31.7873C16.6222 32.1824 15.9986 31.9823 15.9986 31.4964C15.9986 29.8997 15.9986 28.3029 15.9986 26.7062C15.9986 24.6481 16.9052 22.6944 18.4771 21.365L28.6452 12.7658C29.0669 12.4093 29.1195 11.7786 28.7627 11.3572C28.4059 10.9358 27.7749 10.8832 27.3533 11.2398L17.1852 19.839C16.2588 20.6225 15.5121 21.5746 14.975 22.6309C14.4688 22.067 13.8002 21.6441 13.0282 21.4385L2.37176 18.6006C1.91794 18.4798 1.86609 17.8568 2.29368 17.6627L36.5862 2.09202Z"/>
    </symbol>
</svg>