<svg width="797" height="21" viewBox="0 0 797 21" fill="none" xmlns="http://www.w3.org/2000/svg">
<path fill-rule="evenodd" clip-rule="evenodd" d="M11 0C11.2652 0 11.5196 0.105371 11.7071 0.292908C11.8946 0.480444 12 0.734784 12 1V7C12 7.26522 11.8946 7.51956 11.7071 7.70709C11.5196 7.89463 11.2652 8 11 8C10.7348 8 10.4804 7.89463 10.2929 7.70709C10.1054 7.51956 10 7.26522 10 7V1C10 0.734784 10.1054 0.480444 10.2929 0.292908C10.4804 0.105371 10.7348 0 11 0ZM14 2C14.2652 2 14.5196 2.10537 14.7071 2.29291C14.8946 2.48044 15 2.73478 15 3V9C15 9.26522 14.8946 9.51956 14.7071 9.70709C14.5196 9.89463 14.2652 10 14 10C13.7348 10 13.4804 9.89463 13.2929 9.70709C13.1054 9.51956 13 9.26522 13 9V3C13 2.73478 13.1054 2.48044 13.2929 2.29291C13.4804 2.10537 13.7348 2 14 2ZM8 2C8.26522 2 8.51957 2.10537 8.70711 2.29291C8.89464 2.48044 9 2.73478 9 3V8C9 8.26522 8.89464 8.51956 8.70711 8.70709C8.51957 8.89463 8.26522 9 8 9C7.73478 9 7.48043 8.89463 7.29289 8.70709C7.10536 8.51956 7 8.26522 7 8V3C7 2.73478 7.10536 2.48044 7.29289 2.29291C7.48043 2.10537 7.73478 2 8 2ZM5 4C5.26522 4 5.51957 4.10537 5.70711 4.29291C5.89464 4.48044 6 4.73478 6 5V9C6 9.26522 5.89464 9.51956 5.70711 9.70709C5.51957 9.89463 5.26522 10 5 10C4.73478 10 4.48043 9.89463 4.29289 9.70709C4.10536 9.51956 4 9.26522 4 9V5C4 4.73478 4.10536 4.48044 4.29289 4.29291C4.48043 4.10537 4.73478 4 5 4Z" fill="#F9C0B0"/>
<path fill-rule="evenodd" clip-rule="evenodd" d="M17 11V15.5087C17 16.4385 16.775 17.3838 16.1252 18.0488C15.6914 18.4928 15.1944 18.8739 14.648 19.1788C13.6856 19.7158 12.6021 19.9985 11.5 20H10.5C8.77609 20 7.1228 19.3152 5.90381 18.0962C4.68482 16.8772 4 15.2239 4 13.5V12.5C4.00778 11.9932 4.07833 11.4894 4.21001 11H17Z" fill="#F9C0B0"/>
<path d="M18 6H2C0.895431 6 0 6.89543 0 8V13C0 14.1046 0.895431 15 2 15H18C19.1046 15 20 14.1046 20 13V8C20 6.89543 19.1046 6 18 6Z" fill="#0D8F1F"/>
<path fill-rule="evenodd" clip-rule="evenodd" d="M17 15.0493C17 16.1267 16.1267 17 15.0493 17H11.3452C11.0692 16.4267 10.9553 15.7873 11.0158 15.1526C11.0764 14.5178 11.3092 13.9123 11.6885 13.4031C12.0678 12.8939 12.5788 12.5008 13.165 12.2672C13.7513 12.0336 14.3899 11.9687 15.0103 12.0795V9.00705C15.0103 8.73996 15.1151 8.48383 15.3017 8.29497C15.4882 8.10611 15.7413 8 16.0051 8C16.269 8 16.522 8.10611 16.7086 8.29497C16.8952 8.48383 17 8.73996 17 9.00705V15.0493Z" fill="#F9C0B0"/>
<path fill-rule="evenodd" clip-rule="evenodd" d="M59.6626 13.8944C59.7575 14.3147 60.0408 15.986 60.0408 15.986L60.0433 15.9908H63L60.3996 4.01111H57.9357C57.547 4.01111 57.2262 4.04783 56.9247 4.23015C56.6232 4.41246 56.3949 4.68893 56.2774 5.01393L51.5613 15.986H54.8962C54.8962 15.986 55.4616 14.2227 55.575 13.8944H59.6626ZM57.24 9.79769C57.5668 8.96216 57.8937 8.12661 58.1744 7.27698C58.3522 8.07671 58.5215 8.87806 58.6907 9.6794C58.8371 10.3724 58.9835 11.0655 59.1354 11.7575H56.4977C56.7306 11.0998 56.9853 10.4488 57.24 9.79769Z" fill="#3156FF"/>
<path d="M47.3196 7.52195C47.3393 7.01218 47.9048 6.50241 49.1676 6.50241C50.1096 6.47248 50.9732 6.7147 51.82 7.07783L52.2536 4.49079C51.3372 4.16127 50.3668 3.99503 49.3893 4.00011C46.2417 4.00011 44.0377 5.62734 44.018 7.9398C44.0005 9.56442 45.4398 10.2308 46.6173 10.7759C46.6814 10.8056 46.7448 10.835 46.8071 10.8641C48.0514 11.4467 48.4654 11.8299 48.4654 12.3576C48.356 13.2257 47.4513 13.5071 46.5647 13.5076C45.3731 13.5082 43.9397 13.0593 43.1322 12.6859L42.6998 15.3637C43.8293 15.7875 45.0305 16.0033 46.2417 16C49.6 16 51.767 14.399 51.7855 11.9409C51.804 10.5752 50.9564 9.83321 49.1282 8.99752C47.9984 8.45074 47.3196 8.08783 47.3196 7.52195Z" fill="#3156FF"/>
<path d="M39.5201 4.04767L37.5219 15.986H40.7077L42.7047 4.04767H39.5201Z" fill="#3156FF"/>
<path d="M27.0276 5.68631L29.853 15.986H33.2261L38.2389 4.04767H34.8658L31.7403 12.1765C31.2404 9.76648 30.7331 7.35807 30.2217 4.95017C30.1603 4.68317 30.001 4.4436 29.7705 4.27147C29.54 4.09935 29.2522 4.0051 28.9551 4.00444H24V4.35981C25.014 4.6353 26.0698 5.02786 26.981 5.5206L27.0276 5.68631Z" fill="#3156FF"/>
<path d="M76 19C80.9706 19 85 14.9706 85 10C85 5.02944 80.9706 1 76 1C71.0294 1 67 5.02944 67 10C67 14.9706 71.0294 19 76 19Z" fill="#E70025"/>
<path d="M85 19C89.9706 19 94 14.9706 94 10C94 5.02944 89.9706 1 85 1C80.0294 1 76 5.02944 76 10C76 14.9706 80.0294 19 85 19Z" fill="#F59E2D"/>
<path fill-rule="evenodd" clip-rule="evenodd" d="M80.5 2.2041C77.8099 3.76024 76 6.66879 76 10.0001C76 13.3313 77.8099 16.2399 80.5 17.796C83.1901 16.2399 85 13.3313 85 10.0001C85 6.66879 83.1901 3.76024 80.5 2.2041Z" fill="#FC5D1D"/>
<path d="M107 19C111.971 19 116 14.9706 116 10C116 5.02944 111.971 1 107 1C102.029 1 98 5.02944 98 10C98 14.9706 102.029 19 107 19Z" fill="#D2181C"/>
<path d="M116 19C120.971 19 125 14.9706 125 10C125 5.02944 120.971 1 116 1C111.029 1 107 5.02944 107 10C107 14.9706 111.029 19 116 19Z" fill="#179ADC"/>
<path fill-rule="evenodd" clip-rule="evenodd" d="M111.5 2.2041C108.81 3.76024 107 6.66879 107 10.0001C107 13.3313 108.81 16.2399 111.5 17.796C114.19 16.2399 116 13.3313 116 10.0001C116 6.66879 114.19 3.76024 111.5 2.2041Z" fill="#6C6BBB"/>
<path d="M159.42 0.00591932L151.541 0.00390625H151.539C151.532 0.00390625 151.527 0.00496576 151.521 0.00496576C150.438 0.0373868 149.09 0.886904 148.844 1.93434L145.118 18.0668C144.872 19.1241 145.54 19.9843 146.615 20.0001H154.893C155.951 19.9489 156.98 19.1091 157.221 18.0736L160.948 1.94101C161.197 0.87313 160.513 0.00591932 159.42 0.00591932Z" fill="#01798A"/>
<path d="M145.118 18.0667L148.844 1.93429C149.09 0.886858 150.438 0.0373408 151.521 0.00491976L148.388 0.00301264L142.743 0.00195312C141.658 0.0236731 140.292 0.879124 140.046 1.9344L136.319 18.0667C136.072 19.124 136.741 19.9843 137.815 20H146.615C145.54 19.9843 144.872 19.124 145.118 18.0667Z" fill="#024381"/>
<path d="M136.319 18.0667L140.046 1.93425C140.292 0.878972 141.658 0.0235212 142.743 0.00180117L135.512 0C134.42 0 133.021 0.865304 132.771 1.93425L129.044 18.0667C129.021 18.1651 129.009 18.2617 129.001 18.356V18.6552C129.074 19.4259 129.676 19.9871 130.54 19.9999H137.815C136.741 19.9842 136.072 19.124 136.319 18.0667Z" fill="#DD0228"/>
<path fill-rule="evenodd" clip-rule="evenodd" d="M137.36 10.5535H134.444L133.097 16.9733H134.451L134.935 14.6524H136.498C137.129 14.6524 137.676 14.4654 138.139 14.0942C138.599 13.7216 138.897 13.2303 139.026 12.619C139.049 12.5113 139.068 12.4028 139.083 12.2938C139.091 12.1864 139.097 12.0872 139.097 11.9993V11.9854C139.097 11.5234 138.949 11.1691 138.652 10.9218C138.354 10.6777 137.92 10.5535 137.36 10.5535ZM136.47 13.5361H135.173L135.568 11.6532H136.669C137.029 11.6532 137.288 11.7033 137.454 11.8081C137.619 11.9115 137.702 12.0761 137.702 12.3037C137.702 12.3394 137.698 12.3763 137.695 12.4132C137.694 12.4223 137.693 12.4313 137.692 12.4404C137.689 12.4594 137.686 12.479 137.682 12.4993C137.677 12.5313 137.672 12.5651 137.665 12.601C137.594 12.9191 137.466 13.1536 137.271 13.3072C137.076 13.4592 136.808 13.5361 136.47 13.5361Z" fill="white"/>
<path d="M144.081 19.3905C144.321 19.1491 144.729 18.6301 145.157 17.7397L147.541 13.0112H146.355L145.184 15.6867L145.117 13.0112H144.492L143.747 13.021L144.101 17.2861C144.065 17.3568 144.025 17.4383 143.982 17.5275C143.671 18.1693 143.166 19.2084 142.321 19.4634L142.222 20.1428C143.301 20.1823 143.785 19.6913 144.038 19.4347C144.053 19.419 144.068 19.4043 144.081 19.3905Z" fill="white"/>
<path fill-rule="evenodd" clip-rule="evenodd" d="M141.371 13.6504L141.842 13.3336L142.952 13.2388L142.111 16.9736L140.832 16.9415L140.647 16.7265C139.034 17.3979 138.454 16.7559 138.429 15.8575C138.403 14.9445 138.949 13.7668 139.562 13.4341C140.343 13.0112 140.879 13.2737 141.371 13.6504ZM140.09 16.2491C140.45 16.3607 140.909 15.9686 141.114 15.3754C141.324 14.7808 141.194 14.2086 140.835 14.0997C140.478 13.9881 140.016 14.3788 139.811 14.9734C139.602 15.568 139.731 16.1402 140.09 16.2491Z" fill="white"/>
<path d="M139.417 9.17114C139.981 8.76089 140.344 8.18314 140.501 7.43083L141.443 2.99255H140.029L139.099 7.38036C139.017 7.76703 138.834 8.06416 138.554 8.27357C138.275 8.48448 137.915 8.58903 137.477 8.58903C137.097 8.58903 136.824 8.48313 136.656 8.26951C136.54 8.12575 136.483 7.94158 136.485 7.71685C136.484 7.60364 136.497 7.49071 136.523 7.38051L137.451 2.993H136.03L135.089 7.43098C135.044 7.64715 135.021 7.84815 135.021 8.03517C135.021 8.48733 135.155 8.86138 135.425 9.15582C135.813 9.57028 136.422 9.77683 137.253 9.77683C138.136 9.77683 138.857 9.57448 139.417 9.17114Z" fill="white"/>
<path d="M147.581 5.68481H146.468L145.599 9.64569H146.709L147.581 5.68481Z" fill="white"/>
<path d="M147.941 4.24179H146.818L146.609 5.20321H147.731L147.941 4.24179Z" fill="white"/>
<path fill-rule="evenodd" clip-rule="evenodd" d="M148.126 8.23887C148.128 8.705 148.275 9.07199 148.566 9.34419C148.856 9.61354 149.251 9.74754 149.753 9.74739C150.36 9.74739 150.88 9.56186 151.313 9.18932C151.746 8.81947 152.026 8.31428 152.155 7.68065C152.173 7.58247 152.189 7.48378 152.201 7.38471C152.212 7.28422 152.218 7.19063 152.218 7.10981C152.218 6.63796 152.073 6.26692 151.783 5.99186C151.492 5.71846 151.096 5.58161 150.596 5.58161C149.985 5.58161 149.464 5.77134 149.032 6.1496C148.599 6.5265 148.318 7.03725 148.186 7.68065C148.166 7.77138 148.153 7.86902 148.142 7.96952C148.131 8.06867 148.126 8.15925 148.126 8.23887ZM151.109 7.6165C151.023 8.03652 150.883 8.35199 150.686 8.55989C150.49 8.76915 150.239 8.87385 149.93 8.874C149.693 8.874 149.514 8.80851 149.387 8.67586C149.259 8.54337 149.196 8.35634 149.196 8.11343C149.194 8.05755 149.196 7.99626 149.203 7.93062C149.213 7.86647 149.223 7.80083 149.235 7.73518C149.323 7.3081 149.464 6.98723 149.662 6.77497C149.859 6.5627 150.11 6.4568 150.418 6.4568C150.651 6.4568 150.832 6.5238 150.959 6.65915C151.086 6.79314 151.15 6.98287 151.15 7.22713C151.15 7.28437 151.147 7.34716 151.14 7.41416C151.133 7.48251 151.121 7.55086 151.109 7.6165Z" fill="white"/>
<path d="M142.814 5.68349H141.81L141 9.64707H142.034L142.494 7.37077C142.553 7.08475 142.674 6.86002 142.856 6.69808C143.038 6.53749 143.261 6.45667 143.527 6.45667C143.743 6.45667 143.893 6.51661 143.971 6.63799C144.05 6.75952 144.065 6.9479 144.013 7.20057L143.514 9.64707H144.545L145.098 6.9479C145.187 6.51947 145.136 6.18583 144.948 5.94442C144.756 5.70302 144.452 5.58299 144.03 5.58299C143.563 5.58299 143.168 5.75184 142.843 6.09239L142.699 6.25568L142.814 5.68349Z" fill="white"/>
<path d="M154.322 5.68349H153.318L152.508 9.64707H153.541L154.003 7.37077C154.06 7.08475 154.181 6.86002 154.364 6.69808C154.548 6.53749 154.77 6.45667 155.036 6.45667C155.251 6.45667 155.398 6.51661 155.479 6.63799C155.558 6.75952 155.572 6.9479 155.521 7.20057L155.021 9.64707H156.054L156.605 6.9479C156.696 6.51947 156.642 6.18583 156.455 5.94442C156.265 5.70302 155.96 5.58299 155.538 5.58299C155.073 5.58299 154.676 5.75184 154.351 6.09239L154.208 6.25568L154.322 5.68349Z" fill="white"/>
<path fill-rule="evenodd" clip-rule="evenodd" d="M178.531 16V8.87353H178.164L175.551 16H172.449H172.44L169.833 8.87353H169.469V16H165V4.00034H169.469C170.02 3.99408 170.559 4.14407 171.007 4.42847C171.456 4.71286 171.79 5.11684 171.962 5.58163L173.799 11.1281H174.185L176.024 5.58163C176.197 5.11508 176.534 4.70989 176.985 4.42537C177.436 4.14086 177.978 3.99192 178.531 4.00034H183V16H178.531Z" fill="#52B461"/>
<path fill-rule="evenodd" clip-rule="evenodd" d="M193.621 15.9947V8.87117H193.293L190.574 14.8485C190.407 15.1903 190.137 15.4802 189.795 15.6836C189.454 15.8869 189.056 15.9949 188.649 15.9947H185V4H189.336V11.1235H189.68L192.433 5.13951L192.455 5.0942C192.629 4.76727 192.898 4.49187 193.234 4.29939C193.569 4.1069 193.956 4.00502 194.351 4.00533H198V16H193.624L193.621 15.9947Z" fill="#52B461"/>
<path fill-rule="evenodd" clip-rule="evenodd" d="M210.838 11.8254H205.521V16H201V9H216C215.534 9.88923 214.796 10.6314 213.878 11.1339C212.96 11.6364 211.903 11.8769 210.838 11.8254Z" fill="#52B461"/>
<path fill-rule="evenodd" clip-rule="evenodd" d="M215.89 8H207.599C203.813 8 200.663 6.27012 200 4H210.758C213.653 4 216 5.48634 216 7.31867C216 7.5491 215.963 7.77842 215.89 8Z" fill="url(#paint0_linear_1577_151856)"/>
<path fill-rule="evenodd" clip-rule="evenodd" d="M223.467 0H227.999V16.4582C228.01 16.9129 227.929 17.3651 227.76 17.7892C227.592 18.2133 227.34 18.6009 227.018 18.9298C226.696 19.2587 226.311 19.5225 225.885 19.7061C225.458 19.8897 224.999 19.9896 224.533 20H220.001V3.54184C219.99 3.08715 220.071 2.63483 220.24 2.21074C220.408 1.78665 220.66 1.39909 220.982 1.07019C221.304 0.741295 221.689 0.477487 222.115 0.293858C222.542 0.110229 223.001 0.010395 223.467 0Z" fill="#1060AC"/>
<path fill-rule="evenodd" clip-rule="evenodd" d="M232.467 0H236.999V16.4582C237.011 16.912 236.93 17.3636 236.762 17.7872C236.594 18.2108 236.342 18.5982 236.02 18.9271C235.698 19.256 235.313 19.52 234.886 19.7041C234.459 19.8882 233.999 19.9888 233.532 20H229.001V3.54184C228.977 2.62549 229.329 1.73754 229.979 1.07332C230.629 0.409094 231.524 0.0230108 232.467 0Z" fill="#DF003F"/>
<path fill-rule="evenodd" clip-rule="evenodd" d="M241.475 0H245.984V16.4582C246.077 17.3097 245.768 18.158 245.122 18.8205C244.477 19.483 243.546 19.9065 242.531 20H238.016V3.54184C237.923 2.6895 238.233 1.84052 238.88 1.17798C239.527 0.515436 240.459 0.0923959 241.475 0Z" fill="#48A83B"/>
<path fill-rule="evenodd" clip-rule="evenodd" d="M232.394 11.7348C233.308 11.7233 234.205 11.4549 235 10.9547V12.4925C234.121 12.8321 233.197 13.0036 232.267 12.9995C231.141 13.0125 230.027 12.754 229 12.2418V6.75817C230.027 6.24647 231.141 5.98795 232.267 6.00043C233.197 5.99676 234.122 6.16858 235 6.50856V8.02739C234.205 7.52585 233.308 7.25524 232.394 7.24069C231.893 7.3 231.43 7.56228 231.094 7.9771C230.758 8.39192 230.572 8.92996 230.572 9.48771C230.572 10.0454 230.758 10.5835 231.094 10.9983C231.43 11.4131 231.893 11.6754 232.394 11.7348Z" fill="white"/>
<path fill-rule="evenodd" clip-rule="evenodd" d="M224.027 13H223.034C222.002 12.9434 220.982 12.7483 220 12.4198V10.8206C220.922 11.4169 221.979 11.7651 223.071 11.8325H223.32C223.524 11.8669 223.733 11.857 223.933 11.8038C224.133 11.7505 224.319 11.6549 224.48 11.5234C224.641 11.3919 224.772 11.2273 224.866 11.0406C224.959 10.8539 225.013 10.6492 225.023 10.44V6H228V10.1638C227.995 11.7339 226.34 13 224.027 13Z" fill="white"/>
<path fill-rule="evenodd" clip-rule="evenodd" d="M245 11.2503C245 11.9725 244.705 12.2875 244.313 12.6122C243.92 12.937 243.411 13.0136 242.888 12.9981H238V6.00699H242.2C242.458 5.98527 242.719 6.0143 242.965 6.09226C243.211 6.17022 243.437 6.29542 243.629 6.45983C243.821 6.62425 243.974 6.82428 244.079 7.04723C244.183 7.27018 244.238 7.51115 244.238 7.75478C244.238 7.99841 244.183 8.23938 244.079 8.46233C243.974 8.68528 243.821 8.88534 243.629 9.04976C243.437 9.21417 243.211 9.33933 242.965 9.41729C242.841 9.4565 242.806 9.46537 242.631 9.49955L242.965 9.52689C243.221 9.54779 243.978 9.65404 244.371 9.97873C244.763 10.3034 245 10.7054 245 11.2503Z" fill="white"/>
<path fill-rule="evenodd" clip-rule="evenodd" d="M241.333 9L240 8.99459V7.00495L241.333 7C241.703 7.00003 242.001 7.46354 242 8.00223C241.999 8.54092 241.702 9 241.333 9Z" fill="#30993D"/>
<path fill-rule="evenodd" clip-rule="evenodd" d="M242.143 12L240 12V10H242.143C242.621 10 243.001 10.4872 243 11C242.999 11.5117 242.619 12 242.143 12Z" fill="#30993D"/>
<path fill-rule="evenodd" clip-rule="evenodd" d="M254.433 3.12916C253.252 4.33013 252.405 5.78829 251.957 7.36929C251.526 7.07523 250.931 7.07001 250.489 7.39523C249.903 7.82716 249.87 8.60408 250.258 9.08256C250.658 9.57513 251.228 9.94713 251.794 10.236C252.79 10.745 254.281 11.2 256.402 11.2C258.78 11.2 261.01 9.95666 262.876 8.91685C264.972 7.74813 266.656 6.82197 268.3 6.8C270.662 6.802 271.946 7.71446 271.992 7.7476C272.528 8.151 273.302 8.06178 273.726 7.54555C274.191 6.94688 274.013 6.21192 273.477 5.82507C273.25 5.66085 272.325 5.04749 270.775 4.68112C270.751 4.63399 270.724 4.5878 270.694 4.54286C269.689 3.05824 268.289 1.85185 266.63 1.05467C264.635 0.0953599 262.372 -0.220777 260.176 0.152529C257.98 0.525843 255.966 1.56907 254.433 3.12916ZM265.525 3.20367C264.005 2.47285 262.28 2.23166 260.606 2.51628C258.932 2.80089 257.398 3.59594 256.232 4.78249C255.196 5.83672 254.498 7.15025 254.215 8.56568C254.789 8.70289 255.51 8.80001 256.402 8.80001C258.035 8.80001 259.702 7.91494 261.743 6.77794L261.992 6.63934C263.668 5.70298 265.457 4.70445 267.398 4.4576C266.844 3.95811 266.214 3.53468 265.525 3.20367Z" fill="#2D927D"/>
<path fill-rule="evenodd" clip-rule="evenodd" d="M253.065 15.1061C252.209 14.8185 251.354 14.3901 250.504 13.7827C249.952 13.3889 249.836 12.6375 250.243 12.1045C250.65 11.5715 251.427 11.4587 251.979 11.8526C253.396 12.865 254.784 13.2 256.205 13.2C257.756 13.2 259.365 12.3539 260.786 11.6068C261.089 11.4471 261.384 11.292 261.668 11.1506C261.839 11.0654 262.012 10.9787 262.186 10.8913C264.177 9.89134 266.35 8.79999 268.616 8.79999C270.288 8.79999 272.131 9.2578 273.495 10.2377C273.779 10.4435 274.321 11.0865 273.746 11.92C273.39 12.4366 272.657 12.5448 272.115 12.2293C271.717 13.9033 270.875 15.458 269.663 16.7374C268.135 18.3494 266.102 19.436 263.874 19.8328C261.646 20.2297 259.345 19.9154 257.319 18.9374C255.667 18.1398 254.273 16.9362 253.272 15.4572C253.24 15.4108 253.213 15.3631 253.189 15.3144L253.065 15.1061ZM268.616 11.2C268.99 11.2 269.385 11.2314 269.778 11.2975C269.522 12.7174 268.849 14.0433 267.833 15.1159C266.671 16.3419 265.123 17.17 263.424 17.4726C261.726 17.7752 259.971 17.5354 258.428 16.7903C257.765 16.4699 257.156 16.0636 256.617 15.5864C258.481 15.4646 260.289 14.5464 261.946 13.7055C262.168 13.5929 262.387 13.4816 262.603 13.3739C262.865 13.2432 263.134 13.1044 263.409 12.9628C265.019 12.1318 266.825 11.2 268.616 11.2Z" fill="#2D927D"/>
<path fill-rule="evenodd" clip-rule="evenodd" d="M292.981 13.8226C292.853 13.1214 292.51 12.4851 292.006 12.0131C291.831 11.8329 291.632 11.6807 291.416 11.5611C291.306 11.4931 291.19 11.4353 291.071 11.3884C290.763 11.2482 290.428 11.1895 290.095 11.2176C290.355 11.118 290.632 11.0807 290.907 11.1082C291.142 11.1437 291.373 11.2015 291.598 11.281C291.778 11.3875 291.965 11.4949 292.147 11.6043C292.55 10.0902 292.471 8.47709 291.924 7.0151C291.482 5.774 290.763 4.66517 289.83 3.78358C288.883 2.84239 287.707 2.20074 286.435 1.93082C285.695 1.7785 284.934 1.78598 284.198 1.95287C283.574 2.12621 282.987 2.42559 282.47 2.83464C281.99 3.24302 281.584 3.73963 281.27 4.30075C281.178 4.43675 281.096 4.58085 281.026 4.73153C280.964 4.89464 280.894 5.05105 280.823 5.20553C280.435 6.32002 280.311 7.51872 280.462 8.69613C280.551 9.43067 280.736 10.1485 281.011 10.829C281.159 11.1313 281.294 11.4479 281.457 11.7329C281.62 12.0092 281.796 12.2757 281.987 12.5312C282.392 13.0106 282.849 13.4374 283.349 13.8025C284.493 14.6259 285.83 15.0955 287.212 15.1592C287.213 15.0551 287.192 14.9521 287.15 14.8579C287.126 14.7543 287.117 14.6353 287.089 14.5346C287.063 14.2913 287.063 14.0457 287.089 13.8025C287.137 13.8401 287.172 13.8928 287.191 13.9531C287.214 14.0044 287.249 14.0487 287.293 14.0817C287.346 14.1871 287.406 14.2881 287.473 14.3839C287.609 14.5699 287.766 14.7363 287.941 14.879C288.291 15.1835 288.681 15.4303 289.1 15.6111C289.573 15.8219 290.074 15.9515 290.585 15.9949C291.127 16.0726 291.652 16.1705 292.149 16.2962C292.603 16.4351 293.04 16.6302 293.451 16.8776C293.648 16.9927 293.838 17.1209 294.02 17.2614C294.115 17.3228 294.204 17.3952 294.285 17.4773C294.391 17.5224 294.438 17.6299 294.548 17.6692C294.871 17.982 295.171 18.3208 295.444 18.6824C295.575 18.881 295.69 19.0902 295.789 19.308C295.863 19.3944 295.885 19.5364 295.952 19.6313C295.98 19.6874 295.996 19.7491 295.999 19.8123C296.003 19.8755 295.993 19.9388 295.972 19.9979C295.821 20.0209 295.852 19.852 295.791 19.782C295.734 19.7021 295.686 19.6155 295.648 19.5239C295.41 19.2581 295.197 18.9674 294.937 18.7265C294.686 18.4765 294.414 18.2516 294.124 18.0549C293.52 17.607 292.845 17.2784 292.131 17.0849C291.291 16.8405 290.418 16.7529 289.55 16.8258C289.142 16.8741 288.739 16.968 288.35 17.106C287.94 17.202 287.526 17.274 287.11 17.3219C285.475 17.4106 283.845 17.0857 282.352 16.3739C281.707 16.0701 281.104 15.6712 280.563 15.1889C280.291 14.9627 280.04 14.7103 279.812 14.4348C279.578 14.1649 279.373 13.8686 279.201 13.5511C279.005 13.2334 278.828 12.9023 278.673 12.5599C278.526 12.1887 278.404 11.8072 278.307 11.4182C278.179 10.9988 278.097 10.5651 278.063 10.1257C278.056 9.99621 278.001 9.74676 278.002 9.54431C278.011 9.52342 278.018 9.50153 278.022 9.47904C277.993 9.27204 277.993 9.06142 278.022 8.85442C278.025 8.39786 278.073 7.94287 278.164 7.49677C278.236 7.08657 278.338 6.68299 278.469 6.28975C278.59 5.90596 278.75 5.55477 278.896 5.19209C278.994 5.03665 279.068 4.85724 279.16 4.69701C279.238 4.52718 279.355 4.39957 279.425 4.21726C279.484 4.1495 279.538 4.07771 279.588 4.00234C279.619 3.90639 279.703 3.86609 279.729 3.76534C279.796 3.70525 279.852 3.63193 279.892 3.54945C279.96 3.4907 280.015 3.41748 280.055 3.33453C280.298 3.08122 280.514 2.80107 280.766 2.55928C281.018 2.31749 281.3 2.0901 281.56 1.84831C281.725 1.76483 281.844 1.63242 282.006 1.54607C282.13 1.42613 282.311 1.36566 282.434 1.24477C282.756 1.06075 283.088 0.895162 283.427 0.748716C283.77 0.585636 284.123 0.44904 284.485 0.339982C285.312 0.0979002 286.168 -0.0110987 287.026 0.016631C287.061 0.016631 287.078 -0.0207888 287.086 0.016631C288.632 0.0413683 290.138 0.541258 291.421 1.45585C292.555 2.25737 293.468 3.36559 294.064 4.66629C294.766 6.22717 295.001 7.97944 294.735 9.6863C294.561 10.8532 294.159 11.9686 293.556 12.961C293.475 13.1216 293.38 13.2734 293.271 13.4139C293.234 13.4925 293.186 13.5649 293.129 13.6288C293.105 13.6668 293.077 13.7031 293.048 13.7372C293.045 13.7474 293.04 13.7567 293.033 13.7642C293.026 13.7717 293.017 13.7773 293.007 13.7804C293.007 13.8389 292.988 13.8466 292.981 13.8226ZM292.494 14.3839C292.294 14.2272 292.156 13.9966 292.107 13.7372C292.08 13.6389 292.08 13.5343 292.107 13.436C292.119 13.4262 292.133 13.4187 292.148 13.4139C292.182 13.404 292.219 13.4028 292.254 13.4103C292.289 13.4177 292.322 13.4338 292.351 13.4571C292.47 13.6145 292.553 13.7985 292.596 13.9953C292.617 14.0635 292.618 14.1367 292.6 14.2058C292.582 14.2749 292.545 14.3369 292.494 14.3839ZM290.705 14.0174C290.705 13.9934 290.725 14.0049 290.725 14.0174C290.886 14.0351 291.034 14.1197 291.137 14.2529C291.24 14.386 291.289 14.5569 291.274 14.7284C291.266 14.8271 291.228 14.9203 291.165 14.994C291.103 15.0678 291.02 15.118 290.928 15.1371C290.821 15.1416 290.714 15.1167 290.619 15.0646C290.523 15.0126 290.442 14.9352 290.382 14.84C290.323 14.7448 290.288 14.635 290.28 14.5212C290.273 14.4073 290.293 14.2933 290.338 14.1901C290.381 14.1307 290.437 14.0837 290.501 14.0535C290.565 14.0233 290.635 14.0109 290.705 14.0174Z" fill="#F78300"/>
<path fill-rule="evenodd" clip-rule="evenodd" d="M307.005 5.9789C307.101 5.44412 307.407 5.00149 308.597 5.00149H312.848C313.855 5.00149 316.267 4.89432 317.344 6.25864C318.59 7.83946 317.774 10.7524 317.24 11.762C316.102 13.8939 313.97 14.6446 311.695 14.6439C310.495 14.6589 310.18 14.5185 309.979 15.7049C309.779 16.8914 309.344 18.992 309.307 19.2535C309.174 19.882 308.764 19.9982 308.273 19.9982C307.284 19.9982 305.773 19.9982 305.259 19.9982C304.856 19.9982 304.468 20.0701 304.577 19.306C305.385 14.8324 306.189 10.5068 307.005 5.9789Z" fill="#009DDF"/>
<path fill-rule="evenodd" clip-rule="evenodd" d="M301.55 8.6834C301.985 6.18377 302.721 1.90164 302.875 1.03101C302.975 0.458221 303.32 0 304.633 0H310.756C311.867 0 314.735 0.12255 315.971 1.39871C316.739 2.19353 317.182 3.21328 317.182 4.4461C317.182 5.2691 317.041 6.44996 316.612 7.45935C315.986 9.08024 314.585 10.1658 312.9 10.8623C311.249 11.3534 309.514 11.55 307.785 11.4419C306.46 11.458 306.039 11.3274 305.817 12.5806C305.565 13.8715 304.937 17.2774 304.897 17.5558C304.832 17.8695 304.881 18.3291 303.795 18.3291C302.709 18.3291 301.326 18.3291 300.757 18.3291C300.311 18.3291 299.885 18.4139 300.028 17.6108C300.236 16.4343 301.288 10.1944 301.55 8.6834Z" fill="#0048A0"/>
<path fill-rule="evenodd" clip-rule="evenodd" d="M316.529 7.46992C316.221 8.23064 315.742 8.92776 315.122 9.51916C314.502 10.1106 313.754 10.584 312.924 10.9108C311.23 11.3726 309.457 11.5569 307.69 11.455C306.385 11.47 306.083 11.3474 305.863 12.5238C305.863 12.5238 305.823 12.5356 305.823 12.5399H305.832C305.885 12.2173 305.932 11.9324 305.966 11.7302C306.366 9.35275 306.907 6.83767 307.052 6.00863C307.144 5.47098 307.461 5.02795 308.67 5.02795H313.084C314.467 4.90825 315.857 5.16829 317.069 5.77311C316.961 6.3549 316.78 6.92406 316.529 7.46992Z" fill="#003172"/>
<path fill-rule="evenodd" clip-rule="evenodd" d="M331.987 3.18271e-06C333.497 -0.00121307 334.987 0.346173 336.341 1.01517C336.547 1.11365 336.753 1.22247 336.96 1.34168L336.046 2.16693L334.671 0.736378L332.35 2.81778L330.972 1.30504L326.646 5.22353L329.419 8.29678L328.33 9.25971L331.059 12.3374L329.976 13.2982L333.875 17.6664L336.19 15.5217L338.186 17.8186C337.773 18.1429 337.335 18.4355 336.878 18.6938C335.389 19.5499 333.703 20.0002 331.987 20C329.338 20 326.798 18.9464 324.925 17.0711C323.052 15.1957 322 12.6522 322 9.99998C322 7.34782 323.052 4.80429 324.925 2.92893C326.798 1.05356 329.338 3.18271e-06 331.987 3.18271e-06ZM330.176 9.36858L332.538 7.22718L334.667 9.60514L332.304 11.7454L330.176 9.36858ZM331.856 13.4781L334.219 11.3356L336.347 13.7135L333.984 15.8561L331.856 13.4781ZM328.485 5.30793L330.848 3.16653L332.975 5.54449L330.613 7.68477L328.485 5.30793ZM332.821 4.15505L334.596 2.55011L336.191 4.33277L334.416 5.93991L332.82 4.15505H332.821ZM335.97 11.5099L337.745 9.90392L339.34 11.6877L337.565 13.2926L335.97 11.5099ZM337.523 15.1119L339.298 13.5059L340.894 15.2896L339.119 16.8945L337.523 15.1119ZM338.237 6.85732L339.419 5.78663L340.483 6.97507L339.301 8.04463L338.237 6.85732ZM336.728 3.32313L337.909 2.25356L338.973 3.442L337.792 4.51268L336.728 3.32313ZM339.747 10.3882L340.93 9.31747L342 10.507L340.819 11.5777L339.755 10.3882H339.747ZM334.449 7.74144L336.224 6.13538L337.82 7.91804L336.046 9.52518L334.449 7.74144Z" fill="#0083DE"/>
<mask id="mask0_1577_151856" style="mask-type:alpha" maskUnits="userSpaceOnUse" x="346" y="0" width="20" height="20">
<path fill-rule="evenodd" clip-rule="evenodd" d="M363.89 9.72665C363.893 9.81739 363.895 9.90851 363.895 10C363.895 14.3601 360.36 17.8947 356 17.8947C351.64 17.8947 348.105 14.3601 348.105 10C348.105 5.63986 351.64 2.10526 356 2.10526C357.604 2.10526 359.096 2.58349 360.342 3.40512L362.06 2.04466C360.378 0.761843 358.278 0 356 0C350.477 0 346 4.47715 346 10C346 15.5228 350.477 20 356 20C361.523 20 366 15.5228 366 10C366 9.38196 365.944 8.77701 365.837 8.18996L363.89 9.72665Z" fill="#C4C4C4"/>
</mask>
<g mask="url(#mask0_1577_151856)">
<path d="M363.889 9.68746C363.893 9.79114 363.895 9.89533 363.895 10C363.895 14.3601 360.36 17.8947 356 17.8947C351.64 17.8947 348.105 14.3601 348.105 10C348.105 5.63986 351.64 2.10526 356 2.10526C357.604 2.10526 359.096 2.58349 360.341 3.40512L362.06 2.04465C360.378 0.761838 358.278 0 356 0C350.477 0 346 4.47715 346 10C346 15.5228 350.477 20 356 20C361.523 20 366 15.5228 366 10C366 9.36309 365.94 8.74008 365.827 8.13624L363.889 9.68746Z" fill="#24A236"/>
<ellipse cx="354.548" cy="-0.366778" rx="8.43694" ry="8.43693" fill="#008ACB"/>
<g filter="url(#filter0_f_1577_151856)">
<ellipse cx="353.448" cy="19.8085" rx="7.33647" ry="7.33646" fill="#77F628"/>
</g>
<g filter="url(#filter1_f_1577_151856)">
<ellipse cx="346.845" cy="5.86918" rx="7.33647" ry="7.33646" fill="#19E7E8"/>
</g>
<g filter="url(#filter2_f_1577_151856)">
<ellipse cx="346.112" cy="13.2056" rx="5.86917" ry="5.86917" fill="#DEFA1B"/>
</g>
</g>
<path d="M365.167 5.18571C364.844 4.52654 364.454 3.90612 364.005 3.33337L355.707 9.7498L351.833 7.34342V10.0852L355.707 12.5L365.167 5.18571Z" fill="#24A236"/>
<path fill-rule="evenodd" clip-rule="evenodd" d="M384.702 14.4625L382.384 15.3272C382.309 15.3534 382.228 15.3491 382.157 15.3153C382.086 15.2815 382.03 15.2207 382.001 15.1457L380.8 11.8098H375.175L373.977 15.1387C373.949 15.2138 373.893 15.2748 373.822 15.3089C373.751 15.3429 373.67 15.3474 373.596 15.3213L371.281 14.4566C371.244 14.4449 371.21 14.4258 371.181 14.4004C371.152 14.375 371.128 14.3439 371.111 14.3089C371.093 14.2738 371.083 14.2356 371.081 14.1964C371.078 14.1573 371.083 14.118 371.096 14.0809L375.777 1.47698C375.965 1.03769 376.274 0.664151 376.666 0.401895C377.057 0.139639 377.515 0 377.983 0C378.45 0 378.908 0.139639 379.3 0.401895C379.692 0.664151 380 1.03769 380.189 1.47698L384.887 14.088C384.9 14.125 384.905 14.1642 384.902 14.2033C384.899 14.2423 384.889 14.2805 384.872 14.3154C384.855 14.3504 384.831 14.3814 384.802 14.4067C384.773 14.432 384.739 14.451 384.702 14.4625ZM378.355 4.65742L377.986 3.59729V3.58902L375.868 9.43512H380.106L378.355 4.65742ZM371.095 17.6807H384.905C385.199 17.6903 385.477 17.8167 385.682 18.0331C385.886 18.2495 386 18.539 386 18.8403C386 19.1416 385.886 19.4312 385.682 19.6476C385.477 19.864 385.199 19.9904 384.905 20H371.095C370.801 19.9904 370.523 19.864 370.318 19.6476C370.114 19.4312 370 19.1416 370 18.8403C370 18.539 370.114 18.2495 370.318 18.0331C370.523 17.8167 370.801 17.6903 371.095 17.6807Z" fill="#FC0018"/>
<path d="M451 4C451 2.34315 449.657 1 448 1H393C391.343 1 390 2.34315 390 4V16C390 17.6569 391.343 19 393 19H448C449.657 19 451 17.6569 451 16V4Z" fill="#FFDD2D"/>
<path d="M400.626 13.7619V8.2222H403.303V6.20633H396V8.2222H398.677V13.7619H400.626ZM406.032 6.20633H404.083V13.7619H406.032V6.20633ZM407.459 6.20633V13.7619H409.252V9.58725L412.592 13.7619H414.255V6.20633H412.462V10.3492L409.2 6.20633H407.459ZM418.086 10.9048L420.334 13.7619H422.842L419.71 9.82539L422.725 6.20633H420.36L418.086 9.04756H417.566V6.20633H415.682V13.7619H417.566V10.9048H418.086ZM426.719 6C424.186 6 422.664 7.74603 422.664 10C422.664 12.2539 424.186 14 426.719 14C429.24 14 430.76 12.2539 430.76 10C430.76 7.74603 429.24 6 426.719 6ZM426.719 12.1587C425.459 12.1587 424.653 11.238 424.653 10C424.653 8.76189 425.459 7.85715 426.719 7.85715C427.967 7.85715 428.786 8.76189 428.786 10C428.786 11.238 427.967 12.1587 426.719 12.1587ZM437.906 6.20633H431.655V13.7619H433.54V11.2371H437.633V9.57041H433.54V8.12704H437.906V6.20633ZM445 6.20633H438.75V13.7619H440.634V11.2371H444.727V9.57041H440.634V8.12704H445V6.20633Z" fill="black"/>
<path fill-rule="evenodd" clip-rule="evenodd" d="M472.92 20C478.487 20 483 15.5228 483 10C483 4.47715 478.487 0 472.92 0C467.353 0 462.84 4.47715 462.84 10C462.84 15.5228 467.353 20 472.92 20ZM472.92 13.8889C475.085 13.8889 476.84 12.1478 476.84 10C476.84 7.85223 475.085 6.11111 472.92 6.11111C470.755 6.11111 469 7.85223 469 10C469 12.1478 470.755 13.8889 472.92 13.8889Z" fill="#8A42F9"/>
<path d="M462.84 3.33333H455L459.181 16.6667H462.84V3.33333Z" fill="#8A42F9"/>
<path fill-rule="evenodd" clip-rule="evenodd" d="M504.92 20C510.487 20 515 15.5228 515 10C515 4.47715 510.487 0 504.92 0C499.353 0 494.84 4.47715 494.84 10C494.84 15.5228 499.353 20 504.92 20ZM504.92 13.8889C507.085 13.8889 508.84 12.1478 508.84 10C508.84 7.85223 507.085 6.11111 504.92 6.11111C502.755 6.11111 501 7.85223 501 10C501 12.1478 502.755 13.8889 504.92 13.8889Z" fill="#0F72ED"/>
<path d="M494.84 3.33333H487L491.181 16.6667H494.84V3.33333Z" fill="#0F72ED"/>
<path fill-rule="evenodd" clip-rule="evenodd" d="M533.352 2.59297C533.557 2.79719 533.464 3.14584 533.185 3.22183L530.967 3.82678C530.904 3.844 530.846 3.87741 530.8 3.92369L530.742 3.98218C530.787 3.96317 530.836 3.95266 530.888 3.95266L536.939 3.95266C537.147 3.95266 537.315 4.12106 537.315 4.3288V7.84C537.315 8.12881 537.003 8.30987 536.752 8.16658L534.756 7.02589C534.699 6.99341 534.635 6.97633 534.57 6.97633H534.487C534.532 6.99469 534.574 7.02221 534.611 7.0589L538.89 11.3376C539.037 11.4845 539.037 11.7226 538.89 11.8695L536.407 14.3523C536.203 14.5565 535.854 14.464 535.778 14.1853L535.173 11.9672C535.156 11.904 535.123 11.8465 535.076 11.8002L535.018 11.7418C535.037 11.7867 535.047 11.8361 535.047 11.888V17.939C535.047 18.1467 534.879 18.3151 534.671 18.3151H530.512L531.974 15.7561C532.007 15.6993 532.024 15.635 532.024 15.5695V15.4869C532.005 15.5321 531.978 15.5745 531.941 15.6111L527.662 19.8898C527.516 20.0367 527.277 20.0367 527.13 19.8898L524.648 17.407C524.443 17.2028 524.536 16.8542 524.815 16.7782L527.033 16.1732C527.096 16.156 527.154 16.1226 527.2 16.0763L527.258 16.0179C527.213 16.0368 527.164 16.0473 527.112 16.0473H521.061C520.853 16.0473 520.685 15.8789 520.685 15.6712L520.685 12.16C520.685 11.8712 520.997 11.6901 521.248 11.8334L523.244 12.9741C523.301 13.0066 523.365 13.0237 523.431 13.0237H523.513C523.468 13.0053 523.426 12.9778 523.389 12.9411L519.11 8.66241C518.963 8.51552 518.963 8.27736 519.11 8.13047L521.593 5.64767C521.797 5.44345 522.146 5.53604 522.222 5.81467L522.827 8.03281C522.844 8.09596 522.877 8.15353 522.924 8.19981L522.982 8.25823C522.963 8.21328 522.953 8.16388 522.953 8.11203V2.06105C522.953 1.85331 523.121 1.68491 523.329 1.68491H527.488L526.026 4.24389C525.993 4.30072 525.976 4.36505 525.976 4.4305V4.51314C525.995 4.46792 526.022 4.42554 526.059 4.38886L530.338 0.110169C530.484 -0.0367233 530.723 -0.0367228 530.87 0.110169L533.352 2.59297ZM523.671 8.48817L525.567 8.80423C525.644 8.81712 525.716 8.85385 525.771 8.90929L526.596 9.73402C526.743 9.88091 526.743 10.1191 526.596 10.266L524.162 12.6995L525.727 11.5819C525.791 11.5363 525.867 11.5118 525.946 11.5118H527.112C527.32 11.5118 527.488 11.6802 527.488 11.888V15.3293L527.804 13.4329C527.817 13.3556 527.854 13.2842 527.909 13.2288L528.734 12.4041C528.881 12.2572 529.119 12.2572 529.266 12.4041L531.7 14.8376L530.582 13.273C530.536 13.2092 530.512 13.1327 530.512 13.0543V11.888C530.512 11.6802 530.68 11.5118 530.888 11.5118H534.329L532.433 11.1958C532.356 11.1829 532.284 11.1461 532.229 11.0907L531.404 10.266C531.257 10.1191 531.257 9.88093 531.404 9.73404L533.838 7.30059L532.273 8.4181C532.209 8.46367 532.133 8.48817 532.054 8.48817H530.888C530.68 8.48817 530.512 8.31976 530.512 8.11203V4.67043L530.196 6.56708C530.183 6.64441 530.146 6.71578 530.091 6.77122L529.266 7.59595C529.119 7.74284 528.881 7.74284 528.734 7.59595L526.3 5.16238L527.418 6.72703C527.464 6.79082 527.488 6.86726 527.488 6.94566V8.11203C527.488 8.31977 527.32 8.48817 527.112 8.48817H523.671Z" fill="#005995"/>
<path d="M556.522 10.6731L560.6 19.2H554.2L550.854 12.2029C550.315 12.6019 549.889 13.1471 549.633 13.7808C549.459 14.21 549.364 14.68 549.364 15.1724C549.364 16.0916 549.697 16.932 550.248 17.5768C549.705 18.9946 548.344 20 546.75 20C544.679 20 543 18.3018 543 16.2069C543 15.7535 543.079 15.3186 543.223 14.9155C543.982 12.1434 546.579 9.88333 549.478 9.32693L545.4 0.800026H551.8L555.146 7.79703C555.685 7.39809 556.111 6.85287 556.367 6.2192C556.541 5.78995 556.636 5.32001 556.636 4.82758C556.636 3.9084 556.303 3.06798 555.752 2.42323C556.295 1.00537 557.656 0 559.25 0C561.321 0 563 1.69822 563 3.79309C563 4.24617 562.921 4.68071 562.777 5.08352C562.019 7.8561 559.421 10.1166 556.522 10.6731Z" fill="#FD6A5E"/>
<path d="M575.405 3.32065C574.866 3.92864 574.003 4.40818 573.141 4.33968C573.033 3.5176 573.455 2.64415 573.949 2.10466C574.489 1.47954 575.432 1.03425 576.196 1C576.286 1.85633 575.935 2.69553 575.405 3.32065ZM576.187 4.50238C574.938 4.43387 573.869 5.17888 573.276 5.17888C572.674 5.17888 571.766 4.53663 570.778 4.55376C569.493 4.57088 568.298 5.26451 567.642 6.36917C566.294 8.5785 567.291 11.8497 568.594 13.648C569.232 14.5385 569.996 15.5147 571.002 15.4805C571.955 15.4462 572.332 14.8896 573.482 14.8896C574.641 14.8896 574.974 15.4805 575.98 15.4634C577.022 15.4462 577.678 14.5728 578.316 13.6822C579.044 12.6717 579.341 11.687 579.359 11.6356C579.341 11.6185 577.346 10.8906 577.328 8.69838C577.31 6.86584 578.9 5.99239 578.972 5.94101C578.074 4.67364 576.672 4.53663 576.187 4.50238ZM583.402 2.01903V15.3692H585.577V10.8049H588.587C591.336 10.8049 593.268 9.00666 593.268 6.40343C593.268 3.80019 591.372 2.01903 588.659 2.01903H583.402ZM585.577 3.76594H588.083C589.97 3.76594 591.049 4.72502 591.049 6.41199C591.049 8.09895 589.97 9.0666 588.074 9.0666H585.577V3.76594ZM597.24 15.4719C598.605 15.4719 599.872 14.8126 600.447 13.7678H600.492V15.3692H602.505V8.72407C602.505 6.79734 600.888 5.55566 598.399 5.55566C596.089 5.55566 594.382 6.81446 594.319 8.54424H596.278C596.44 7.72217 597.24 7.18268 598.336 7.18268C599.666 7.18268 600.411 7.77355 600.411 8.86109V9.59753L597.698 9.75167C595.173 9.89724 593.807 10.882 593.807 12.5947C593.807 14.3245 595.218 15.4719 597.24 15.4719ZM597.824 13.8877C596.665 13.8877 595.928 13.3568 595.928 12.5433C595.928 11.7041 596.638 11.216 597.994 11.1389L600.411 10.9933V11.7469C600.411 12.9971 599.297 13.8877 597.824 13.8877ZM605.192 19C607.312 19 608.31 18.2293 609.181 15.8915L613 5.68411H610.79L608.229 13.5709H608.184L605.623 5.68411H603.35L607.034 15.4034L606.836 15.9943C606.504 16.9962 605.964 17.3815 605.003 17.3815C604.832 17.3815 604.5 17.3644 604.365 17.3473V18.9486C604.491 18.9829 605.03 19 605.192 19Z" fill="#777777"/>
<path d="M575.405 3.32065C574.866 3.92864 574.003 4.40818 573.141 4.33968C573.033 3.5176 573.455 2.64415 573.949 2.10466C574.489 1.47954 575.432 1.03425 576.196 1C576.286 1.85633 575.935 2.69553 575.405 3.32065ZM576.187 4.50238C574.938 4.43387 573.869 5.17888 573.276 5.17888C572.674 5.17888 571.766 4.53663 570.778 4.55376C569.493 4.57088 568.298 5.26451 567.642 6.36917C566.294 8.5785 567.291 11.8497 568.594 13.648C569.232 14.5385 569.996 15.5147 571.002 15.4805C571.955 15.4462 572.332 14.8896 573.482 14.8896C574.641 14.8896 574.974 15.4805 575.98 15.4634C577.022 15.4462 577.678 14.5728 578.316 13.6822C579.044 12.6717 579.341 11.687 579.359 11.6356C579.341 11.6185 577.346 10.8906 577.328 8.69838C577.31 6.86584 578.9 5.99239 578.972 5.94101C578.074 4.67364 576.672 4.53663 576.187 4.50238ZM583.402 2.01903V15.3692H585.577V10.8049H588.587C591.336 10.8049 593.268 9.00666 593.268 6.40343C593.268 3.80019 591.372 2.01903 588.659 2.01903H583.402ZM585.577 3.76594H588.083C589.97 3.76594 591.049 4.72502 591.049 6.41199C591.049 8.09895 589.97 9.0666 588.074 9.0666H585.577V3.76594ZM597.24 15.4719C598.605 15.4719 599.872 14.8126 600.447 13.7678H600.492V15.3692H602.505V8.72407C602.505 6.79734 600.888 5.55566 598.399 5.55566C596.089 5.55566 594.382 6.81446 594.319 8.54424H596.278C596.44 7.72217 597.24 7.18268 598.336 7.18268C599.666 7.18268 600.411 7.77355 600.411 8.86109V9.59753L597.698 9.75167C595.173 9.89724 593.807 10.882 593.807 12.5947C593.807 14.3245 595.218 15.4719 597.24 15.4719ZM597.824 13.8877C596.665 13.8877 595.928 13.3568 595.928 12.5433C595.928 11.7041 596.638 11.216 597.994 11.1389L600.411 10.9933V11.7469C600.411 12.9971 599.297 13.8877 597.824 13.8877ZM605.192 19C607.312 19 608.31 18.2293 609.181 15.8915L613 5.68411H610.79L608.229 13.5709H608.184L605.623 5.68411H603.35L607.034 15.4034L606.836 15.9943C606.504 16.9962 605.964 17.3815 605.003 17.3815C604.832 17.3815 604.5 17.3644 604.365 17.3473V18.9486C604.491 18.9829 605.03 19 605.192 19Z" fill="#777777"/>
<path d="M638.757 9.80149V15.0778H637.058V2.04763H641.564C642.102 2.03656 642.636 2.13054 643.137 2.32415C643.638 2.51776 644.095 2.80717 644.481 3.17567C644.872 3.5218 645.183 3.94629 645.393 4.4206C645.603 4.89492 645.708 5.40808 645.7 5.9256C645.711 6.44588 645.608 6.96239 645.398 7.43973C645.187 7.91707 644.875 8.34396 644.481 8.69112C643.694 9.43137 642.721 9.80114 641.564 9.80045H638.757V9.80149ZM638.757 3.65184V8.2004H641.606C641.918 8.20952 642.229 8.15431 642.519 8.0383C642.808 7.92229 643.07 7.74804 643.287 7.52669C643.503 7.31973 643.675 7.07219 643.792 6.7987C643.909 6.52521 643.97 6.23133 643.97 5.93443C643.97 5.63754 643.909 5.34366 643.792 5.07017C643.675 4.79668 643.503 4.54914 643.287 4.34218C643.072 4.11616 642.812 3.93764 642.522 3.81845C642.232 3.69925 641.92 3.64211 641.606 3.6508H638.757V3.65184ZM649.615 5.87153C650.87 5.87153 651.862 6.20215 652.588 6.86338C653.315 7.52461 653.678 8.4312 653.677 9.58316V15.0778H652.052V13.8406H651.978C651.275 14.8595 650.339 15.3689 649.172 15.3689C648.175 15.3689 647.341 15.0778 646.67 14.4956C646.348 14.2284 646.09 13.8937 645.916 13.516C645.742 13.1383 645.656 12.7271 645.663 12.3123C645.663 11.3898 646.017 10.6561 646.725 10.1113C647.432 9.56652 648.377 9.29344 649.559 9.29205C650.568 9.29205 651.398 9.47399 652.051 9.83788V9.45528C652.053 9.1725 651.991 8.89285 651.87 8.63661C651.748 8.38036 651.571 8.15393 651.349 7.97375C650.9 7.57439 650.315 7.35648 649.71 7.36346C648.761 7.36346 648.01 7.75784 647.457 8.54661L645.961 7.61818C646.784 6.45375 648.002 5.87153 649.615 5.87153ZM647.417 12.3487C647.416 12.5617 647.466 12.7719 647.564 12.9618C647.662 13.1517 647.805 13.3158 647.98 13.4403C648.356 13.7315 648.822 13.8858 649.3 13.877C650.017 13.8758 650.704 13.5947 651.211 13.0952C651.774 12.5732 652.055 11.9609 652.055 11.2581C651.526 10.8422 650.787 10.6343 649.839 10.6343C649.149 10.6343 648.574 10.7982 648.113 11.126C647.648 11.4587 647.417 11.8632 647.417 12.3487ZM663.005 6.16264L657.332 19.0078H655.579L657.684 14.5133L653.954 6.16264H655.8L658.496 12.567H658.533L661.155 6.16264H663.005Z" fill="#5F6368"/>
<path d="M631.892 8.66404C631.893 8.15393 631.849 7.64471 631.761 7.14197H624.597V10.025H628.7C628.616 10.4854 628.439 10.9244 628.178 11.3153C627.917 11.7063 627.579 12.0412 627.183 12.2998V14.1712H629.632C631.066 12.8685 631.892 10.942 631.892 8.66404Z" fill="#4285F4"/>
<path d="M624.597 15.9791C626.647 15.9791 628.373 15.3158 629.632 14.1722L627.183 12.3008C626.501 12.7561 625.624 13.016 624.597 13.016C622.615 13.016 620.933 11.6998 620.332 9.92615H617.809V11.8547C618.441 13.0945 619.411 14.1367 620.61 14.865C621.808 15.5933 623.189 15.979 624.597 15.9791Z" fill="#34A853"/>
<path d="M620.333 9.92624C620.015 8.99682 620.015 7.99033 620.333 7.06091V5.13232H617.809C617.277 6.17527 617 7.32634 617 8.49358C617 9.66082 617.277 10.8119 617.809 11.8548L620.333 9.92624Z" fill="#FBBC04"/>
<path d="M624.597 3.971C625.68 3.95356 626.727 4.3569 627.511 5.09384L629.68 2.95732C628.305 1.68484 626.483 0.98623 624.597 1.00794C623.189 1.008 621.808 1.39371 620.61 2.12201C619.411 2.85031 618.441 3.89253 617.809 5.13231L620.332 7.0609C620.933 5.28722 622.615 3.971 624.597 3.971Z" fill="#EA4335"/>
<path d="M687.027 5.65002V14.4H688.549V11.3187H689.238C691.189 11.3187 692.642 10.4106 692.642 8.48436C692.642 6.55809 691.278 5.65002 689.486 5.65002H687.027ZM688.549 6.85744H689.486C690.717 6.85744 691.065 7.67637 691.065 8.48436C691.065 9.29234 690.717 10.1113 689.486 10.1113H688.549V6.85744Z" fill="#777777"/>
<path d="M694.919 5.65002L692.589 14.4H693.861L694.355 12.5143H697.113L697.599 14.4H699.171L696.841 5.65002H694.919ZM695.745 7.20528L696.802 11.3069H694.671L695.745 7.20528Z" fill="#777777"/>
<path d="M698.677 5.65002L701.307 10.665V14.4H702.829V10.665L705.459 5.65002H704L702.162 9.33911L700.324 5.65002H698.677Z" fill="#777777"/>
<path d="M682.811 10.025C682.811 12.1136 681.978 14.1166 680.495 15.5935C679.013 17.0703 677.002 17.9 674.905 17.9C672.809 17.9 670.798 17.0703 669.315 15.5935C667.833 14.1166 667 12.1136 667 10.025C667 7.93645 667.833 5.93341 669.315 4.45656C670.798 2.97971 672.809 2.15002 674.905 2.15002C677.002 2.15002 679.013 2.97971 680.495 4.45656C681.978 5.93341 682.811 7.93645 682.811 10.025Z" fill="#FB3F1D"/>
<path d="M677.541 14.4H675.93V6.83353H675.212C673.894 6.83353 673.202 7.4628 673.202 8.3946C673.202 9.45195 673.681 9.94311 674.666 10.5727L675.478 11.089L673.135 14.4H671.392L673.495 11.4414C672.284 10.6229 671.605 9.82981 671.605 8.48279C671.605 6.79556 672.843 5.65002 675.198 5.65002H677.541V14.4Z" fill="white"/>
<path d="M729.839 7.01015C729.602 5.15926 728.937 3.47449 727.775 2.24056C726.541 1.07783 724.857 0.413409 723.006 0.176116C721.227 -0.061177 720.017 0.0100108 720.017 0.0100108C720.017 0.0100108 718.807 -0.0374478 717.027 0.176116C715.177 0.413409 713.492 1.07783 712.258 2.24056C711.096 3.47449 710.432 5.15926 710.194 7.01015C709.957 8.78984 710.004 10 710.004 10C710.004 10 709.957 11.2102 710.171 12.9899C710.408 14.8406 711.072 16.5256 712.235 17.7595C713.468 18.9222 715.153 19.5864 717.003 19.8237C718.783 20.061 719.993 19.9901 719.993 19.9901C719.993 19.9901 721.203 20.0373 722.982 19.8237C724.833 19.5864 726.517 18.9222 727.751 17.7595C728.914 16.5258 729.578 14.8406 729.815 12.9899C730.052 11.2102 729.981 10 729.981 10C729.981 10 730.076 8.78984 729.839 7.01015Z" fill="#1E4BC6"/>
<path d="M713.333 9.16663H715.193C715.486 9.16663 715.731 9.21078 715.976 9.29908C716.22 9.38738 716.416 9.51983 716.587 9.67435C716.758 9.82888 716.905 10.0055 717.003 10.2262C717.101 10.447 717.15 10.6677 717.15 10.9106C717.15 11.1534 717.101 11.3741 717.003 11.5949C716.905 11.8156 716.758 11.9925 716.587 12.1468C716.416 12.3011 716.196 12.434 715.976 12.5218C715.755 12.6101 715.486 12.6547 715.193 12.6547H714.361V14.0452H713.358V9.16663H713.333ZM714.336 10.0057V11.7938H715.119C715.266 11.7938 715.413 11.7717 715.535 11.7276C715.657 11.6834 715.755 11.6172 715.853 11.5289C715.951 11.4406 716 11.3523 716.049 11.2419C716.098 11.1315 716.122 11.0212 716.122 10.8887C716.122 10.7563 716.098 10.6459 716.049 10.5355C716 10.4251 715.927 10.3368 715.853 10.2485C715.755 10.1602 715.657 10.094 715.535 10.0498C715.413 10.0057 715.266 9.98362 715.119 9.98362H714.336V10.0057ZM719.474 14.0452C719.205 14.0452 718.96 14.0013 718.691 13.9128C718.446 13.8245 718.202 13.692 718.006 13.5377C717.81 13.3609 717.639 13.1622 717.517 12.9194C717.394 12.6766 717.321 12.3896 717.321 12.0805C717.321 11.7715 717.37 11.4845 717.492 11.2417C717.615 10.9989 717.786 10.8002 717.982 10.6236C718.177 10.447 718.422 10.3366 718.667 10.2483C718.936 10.16 719.18 10.1159 719.474 10.1159C719.768 10.1159 720.037 10.16 720.257 10.2483C720.502 10.3366 720.697 10.4691 720.869 10.6236V10.1159H721.872V14.045H720.869V13.4931C720.722 13.6699 720.502 13.8022 720.257 13.9125C720.012 14.0013 719.768 14.0452 719.474 14.0452ZM719.645 13.2287C719.841 13.2287 720.012 13.2066 720.159 13.1404C720.306 13.0741 720.453 13.0079 720.575 12.8975C720.697 12.7872 720.771 12.6768 720.844 12.5443C720.917 12.4114 720.942 12.2571 720.942 12.1028C720.942 11.9481 720.917 11.7936 720.844 11.6613C720.771 11.5289 720.697 11.3964 720.575 11.3081C720.453 11.1978 720.33 11.1315 720.159 11.0653C719.988 10.977 719.817 10.9549 719.645 10.9549C719.474 10.9549 719.303 10.977 719.131 11.0432C718.96 11.1095 718.838 11.1757 718.716 11.2861C718.593 11.3964 718.495 11.5068 718.446 11.6393C718.373 11.7717 718.349 11.9262 718.349 12.0808C718.349 12.2353 718.373 12.3896 718.446 12.522C718.52 12.6549 718.618 12.7872 718.716 12.8975C718.838 13.0079 718.985 13.0739 719.131 13.1404C719.278 13.1843 719.45 13.2287 719.645 13.2287ZM723.266 10.1379L724.489 12.809L725.615 10.1379H726.667L724.098 15.8333H723.07L723.976 13.8688L722.214 10.1379H723.266Z" fill="white"/>
<path d="M724.814 5.44222V7.31924H724.134L723.667 5.77494H723.655L723.68 7.31924H723.214V5.44222H723.919L724.36 6.93009H724.367L724.342 5.44222H724.814ZM715.022 7.33814L715.375 5.44222H716.219L716.572 7.33814H716.062L715.803 5.61172H715.797L715.532 7.33814H715.022ZM719.03 5.44222L719.074 7.33814H718.595L718.582 5.63055H718.57L718.255 7.33814H717.769L717.454 5.63055H717.442L717.429 7.33814H716.95L716.994 5.44222H717.776L718.009 6.89242H718.015L718.255 5.44222H719.03ZM722.01 7.04936C722.142 7.04936 722.187 6.96148 722.193 6.91119C722.199 6.89242 722.199 6.86103 722.199 6.83592V5.44228H722.684V6.80453C722.684 6.8422 722.678 6.91119 722.678 6.93009C722.647 7.28164 722.363 7.40091 722.01 7.40091C721.657 7.40091 721.38 7.28785 721.348 6.93009C721.348 6.91119 721.342 6.8422 721.342 6.80453V5.44228H721.827V6.84842C721.827 6.87353 721.827 6.8987 721.834 6.92381C721.84 6.96148 721.878 7.04936 722.01 7.04936ZM714.216 6.79826C714.234 6.84214 714.228 6.90491 714.222 6.9363C714.203 6.99908 714.165 7.06186 714.033 7.06186C713.913 7.06186 713.844 6.9928 713.844 6.89242V6.71037H713.333V6.85469C713.333 7.28164 713.667 7.40719 714.026 7.40719C714.373 7.40719 714.657 7.28791 714.701 6.97403C714.726 6.81081 714.707 6.70415 714.701 6.66015C714.619 6.26472 713.894 6.14538 713.844 5.91945C713.837 5.88178 713.837 5.84412 713.844 5.819C713.856 5.75623 713.9 5.69345 714.02 5.69345C714.134 5.69345 714.197 5.76251 714.197 5.86295V5.98222H714.669V5.85039C714.669 5.43607 714.297 5.37329 714.026 5.37329C713.686 5.37329 713.409 5.48629 713.359 5.79389C713.346 5.8755 713.346 5.95084 713.365 6.05128C713.44 6.44665 714.121 6.55343 714.216 6.79826ZM720.41 6.79826C720.428 6.84214 720.422 6.8987 720.416 6.9363C720.403 6.99908 720.359 7.06186 720.233 7.06186C720.113 7.06186 720.044 6.9928 720.044 6.89242V6.71037H719.54V6.85469C719.54 7.27536 719.874 7.40091 720.227 7.40091C720.567 7.40091 720.851 7.28785 720.895 6.97397C720.92 6.81075 720.901 6.70409 720.895 6.66636C720.813 6.27093 720.101 6.15794 720.05 5.93822C720.038 5.90055 720.044 5.86289 720.05 5.83778C720.063 5.775 720.107 5.71222 720.221 5.71222C720.334 5.71222 720.397 5.78128 720.397 5.88172V6.00099H720.87V5.86916C720.87 5.46112 720.498 5.39834 720.233 5.39834C719.899 5.39834 719.622 5.50506 719.572 5.81266C719.559 5.89427 719.553 5.96961 719.578 6.06377C719.647 6.44665 720.315 6.55343 720.41 6.79826ZM725.986 7.03047C726.125 7.03047 726.169 6.94258 726.181 6.89242C726.188 6.87353 726.188 6.84214 726.188 6.82324V6.54715H725.992V6.27087H726.667V6.77936C726.667 6.81703 726.667 6.84214 726.66 6.90491C726.629 7.25019 726.326 7.37574 725.986 7.37574C725.652 7.37574 725.35 7.25019 725.318 6.90491C725.312 6.84214 725.312 6.81703 725.312 6.77936V5.9821C725.312 5.95071 725.318 5.88793 725.318 5.85655C725.362 5.49872 725.646 5.38572 725.986 5.38572C726.326 5.38572 726.623 5.49872 726.654 5.85655C726.66 5.91304 726.66 5.9821 726.66 5.9821V6.04488H726.181V5.93815C726.181 5.93815 726.181 5.89421 726.175 5.86282C726.169 5.81888 726.131 5.72471 725.986 5.72471C725.848 5.72471 725.81 5.81888 725.797 5.86282C725.791 5.88793 725.791 5.91932 725.791 5.95071V6.81696C725.791 6.84207 725.791 6.86725 725.797 6.88602C725.797 6.94886 725.848 7.03047 725.986 7.03047Z" fill="white"/>
<path d="M734 20H754L734 0V20Z" fill="#5D9ADC"/>
<path d="M734 0H754L734 20V0Z" fill="#2077CF"/>
<path fill-rule="evenodd" clip-rule="evenodd" d="M777.505 0.683018C778.233 1.51429 778.148 2.77782 777.317 3.50518L769.317 10.5052C768.486 11.2325 767.222 11.1483 766.495 10.317C765.767 9.48576 765.852 8.22224 766.683 7.49487L774.683 0.494874C775.514 -0.23249 776.778 -0.148255 777.505 0.683018Z" fill="#EC5886"/>
<path fill-rule="evenodd" clip-rule="evenodd" d="M777.505 0.683018C778.233 1.51429 778.148 2.77782 777.317 3.50518L769.317 10.5052C768.486 11.2325 767.222 11.1483 766.495 10.317C765.767 9.48576 765.852 8.22224 766.683 7.49487L774.683 0.494874C775.514 -0.23249 776.778 -0.148255 777.505 0.683018Z" fill="#EC5886"/>
<path fill-rule="evenodd" clip-rule="evenodd" d="M758.495 0.683018C757.767 1.51429 757.852 2.77782 758.683 3.50518L766.683 10.5052C767.514 11.2325 768.778 11.1483 769.505 10.317C770.233 9.48576 770.148 8.22224 769.317 7.49487L761.317 0.494874C760.486 -0.23249 759.222 -0.148255 758.495 0.683018Z" fill="#EC5886"/>
<path fill-rule="evenodd" clip-rule="evenodd" d="M758.495 0.683018C757.767 1.51429 757.852 2.77782 758.683 3.50518L766.683 10.5052C767.514 11.2325 768.778 11.1483 769.505 10.317C770.233 9.48576 770.148 8.22224 769.317 7.49487L761.317 0.494874C760.486 -0.23249 759.222 -0.148255 758.495 0.683018Z" fill="#FAC65C"/>
<path fill-rule="evenodd" clip-rule="evenodd" d="M768 7C769.105 7 770 7.89543 770 9V18C770 19.1046 769.105 20 768 20C766.895 20 766 19.1046 766 18V9C766 7.89543 766.895 7 768 7Z" fill="#94C753"/>
<path d="M782 4.35339L784.241 8.68256V11.3232L782.003 15.6439L782 4.35339Z" fill="#5B57A2"/>
<path d="M790.603 7.10713L792.703 5.71613L797 5.71179L790.603 9.94746V7.10713Z" fill="#D90751"/>
<path d="M790.592 4.32783L790.603 10.0595L788.357 8.56783V0L790.592 4.32783H790.592Z" fill="#FAB718"/>
<path d="M797 5.71183L792.703 5.71617L790.592 4.32783L788.357 0L797 5.71183H797Z" fill="#ED6F26"/>
<path d="M790.603 15.6679V12.887L788.357 11.4237L788.359 20L790.603 15.6679Z" fill="#63B22F"/>
<path d="M792.698 14.2896L784.241 8.68256L782 4.35339L796.991 14.2839L792.698 14.2896H792.698Z" fill="#1487C9"/>
<path d="M788.359 20L790.603 15.6678L792.698 14.2895L796.991 14.2838L788.359 20Z" fill="#017F36"/>
<path d="M782.003 15.6438L788.376 11.4238L786.233 10.0028L784.241 11.3231L782.003 15.6438Z" fill="#984995"/>
<defs>
<filter id="filter0_f_1577_151856" x="336.474" y="2.83425" width="33.9485" height="33.9486" filterUnits="userSpaceOnUse" color-interpolation-filters="sRGB">
<feFlood flood-opacity="0" result="BackgroundImageFix"/>
<feBlend mode="normal" in="SourceGraphic" in2="BackgroundImageFix" result="shape"/>
<feGaussianBlur stdDeviation="4.8189" result="effect1_foregroundBlur_1577_151856"/>
</filter>
<filter id="filter1_f_1577_151856" x="329.871" y="-11.1051" width="33.9485" height="33.9486" filterUnits="userSpaceOnUse" color-interpolation-filters="sRGB">
<feFlood flood-opacity="0" result="BackgroundImageFix"/>
<feBlend mode="normal" in="SourceGraphic" in2="BackgroundImageFix" result="shape"/>
<feGaussianBlur stdDeviation="4.8189" result="effect1_foregroundBlur_1577_151856"/>
</filter>
<filter id="filter2_f_1577_151856" x="333.014" y="0.108079" width="26.195" height="26.195" filterUnits="userSpaceOnUse" color-interpolation-filters="sRGB">
<feFlood flood-opacity="0" result="BackgroundImageFix"/>
<feBlend mode="normal" in="SourceGraphic" in2="BackgroundImageFix" result="shape"/>
<feGaussianBlur stdDeviation="3.61417" result="effect1_foregroundBlur_1577_151856"/>
</filter>
<linearGradient id="paint0_linear_1577_151856" x1="216.014" y1="5.99601" x2="199.977" y2="5.99601" gradientUnits="userSpaceOnUse">
<stop stop-color="#198ECA"/>
<stop offset="1" stop-color="#1DB5E4"/>
</linearGradient>
</defs>
</svg>
