<svg width="836" height="44" viewBox="0 0 836 44" fill="none" xmlns="http://www.w3.org/2000/svg">
<path fill-rule="evenodd" clip-rule="evenodd" d="M1.40589 1.40589C0 2.81177 0 5.0745 0 9.6V10.4C0 14.9255 0 17.1882 1.40589 18.5941C2.81177 20 5.0745 20 9.6 20H10.4C14.9255 20 17.1882 20 18.5941 18.5941C20 17.1882 20 14.9255 20 10.4V9.6C20 5.0745 20 2.81177 18.5941 1.40589C17.1882 0 14.9255 0 10.4 0H9.6C5.0745 0 2.81177 0 1.40589 1.40589Z" fill="#0077FF"/>
<path fill-rule="evenodd" clip-rule="evenodd" d="M3.375 6.08337C3.48333 11.2834 6.08329 14.4084 10.6416 14.4084H10.9V11.4334C12.575 11.6 13.8416 12.825 14.3499 14.4084H16.7167C16.0667 12.0417 14.3583 10.7334 13.2916 10.2334C14.3583 9.61671 15.8582 8.11671 16.2166 6.08337H14.0665C13.5999 7.73337 12.2167 9.23337 10.9 9.37504V6.08337H8.74996V11.85C7.41663 11.5167 5.73333 9.90004 5.65833 6.08337H3.375Z" fill="white"/>
<path fill-rule="evenodd" clip-rule="evenodd" d="M39.363 5.16829C39.363 8.0155 36.9656 10.3366 34.0248 10.3366C31.0521 10.3366 28.6547 8.0155 28.6547 5.16829C28.6547 2.3211 31.0521 0 34.0248 0C36.9656 0 39.363 2.3211 39.363 5.16829ZM36.2304 5.16829C36.2304 3.99227 35.2395 3.03289 34.0248 3.03289C32.7782 3.03289 31.7873 3.99227 31.8192 5.16829C31.8192 6.34431 32.8102 7.30369 34.0248 7.30369C35.2395 7.30369 36.2304 6.34431 36.2304 5.16829Z" fill="#EE8208"/>
<path d="M39.2671 13.3385C38.3082 13.9265 37.2533 14.3289 36.1665 14.5764L39.2032 17.4237C39.8106 18.0117 39.8106 18.971 39.2032 19.559C38.5959 20.147 37.605 20.147 36.9976 19.559L34.0568 16.7119L31.116 19.559C30.7964 19.8376 30.4128 19.9923 29.9973 19.9923C29.5817 19.9923 29.1981 19.8686 28.8785 19.559C28.2711 18.971 28.2711 18.0117 28.8785 17.4237L31.8512 14.5455C30.7644 14.2979 29.7096 13.8956 28.7506 13.3076C28.0154 12.8743 27.7917 11.9459 28.2072 11.2341C28.6867 10.5223 29.6456 10.3366 30.3808 10.7699C32.5545 12.1006 35.3994 12.1006 37.573 10.7699C38.3082 10.3056 39.2991 10.5223 39.7466 11.2341C40.2261 11.9459 40.0024 12.9053 39.2671 13.3385Z" fill="#EE8208"/>
<circle cx="58" cy="10" r="10" fill="#1F7AEF"/>
<path d="M59.5623 19.8787V12.9696H61.8925L62.3355 10.0607H59.5624V8.17337C59.5624 7.37685 59.9506 6.60153 61.1923 6.60153H62.4537V4.12555C62.4537 4.12555 61.309 3.92889 60.2149 3.92889C57.9312 3.92889 56.4377 5.3225 56.4377 7.84373V10.0608H53.8979V12.9697H56.4377V19.8786C56.9468 19.9585 57.4686 20 58 20C58.5315 20 59.0533 19.9585 59.5623 19.8787Z" fill="white"/>
<path fill-rule="evenodd" clip-rule="evenodd" d="M81.6293 7.28295C81.6293 7.28295 81.9937 2.10974 85.5824 2.06493C88.5037 2.0263 89.0633 3.35976 89.0633 3.35976C89.9453 3.08904 90.7609 2.63528 91.4573 2.02782C91.3944 2.89157 91.0502 3.71045 90.4778 4.35793C91.0336 4.35415 91.571 4.15831 92 3.80325C91.8875 4.22027 91.6866 4.60792 91.4111 4.93968C91.1357 5.27145 90.7922 5.53947 90.4041 5.72543C90.5872 8.95994 89.7241 12.1672 87.944 14.8682C85.3301 18.6832 80.5761 18.9676 77.9684 19C75.8815 18.876 73.8492 18.2807 72.0227 17.2586C72.0227 17.2586 75.9788 17.308 77.75 16.007C76.3477 15.0434 75.0354 13.9537 73.8293 12.7513C74.3071 12.7913 74.7883 12.7426 75.2485 12.6076C73.9826 11.2617 72.897 9.75532 72.0196 8.12665C72.5094 8.22462 73.0108 8.25063 73.508 8.20389C73.508 8.20389 71.2017 4.44137 72.2934 2C72.2934 2.00618 76.191 6.95383 81.6293 7.28295Z" fill="#1DA1F2"/>
<path fill-rule="evenodd" clip-rule="evenodd" d="M116 10C116 15.5228 111.523 20 106 20C100.477 20 96 15.5228 96 10C96 4.47715 100.477 0 106 0C111.523 0 116 4.47715 116 10ZM107.364 15.8453H109.34V15.8418H109.327V4.15478H106.47C103.601 4.15478 102.085 5.68369 102.085 7.93126C102.085 9.72966 102.918 10.7956 104.396 11.8874L101.825 15.8435H103.95L106.807 11.4123L105.813 10.7196C104.607 9.88514 104.024 9.23039 104.024 7.81724C104.024 6.57166 104.869 5.73724 106.483 5.73724H107.364V15.8453Z" fill="#FC3F1D"/>
<path fill-rule="evenodd" clip-rule="evenodd" d="M107.364 15.8453H109.34V15.8418H109.327V4.15479H106.47C103.601 4.15479 102.086 5.68369 102.086 7.93126C102.086 9.72966 102.918 10.7956 104.396 11.8874L101.825 15.8435H103.95L106.807 11.4123L105.813 10.7196C104.607 9.88514 104.024 9.23039 104.024 7.81724C104.024 6.57166 104.869 5.73724 106.483 5.73724H107.364V15.8453Z" fill="white"/>
<path d="M140 10.0244C140 13.4634 138.392 15.0732 136.37 15.0732C135.201 15.0732 134.178 14.4634 133.593 13.5366C132.667 14.4634 131.425 15.0488 130.012 15.0488C127.235 15.0488 124.994 12.8049 124.994 10.0244C124.994 7.2439 127.235 5 130.012 5C132.789 5 135.03 7.2439 135.03 10.0244V11.6585C135.03 12.4878 135.615 13.0732 136.37 13.0732C137.272 13.0732 138.002 12.3171 138.002 10.0244C138.002 5.60976 134.421 2.02439 130.012 2.02439C125.603 2.02439 121.998 5.60976 121.998 10.0244C121.998 14.439 125.579 18.0244 129.988 18.0244C132.546 18.0244 134.3 16.7561 134.3 16.7561L135.615 18.2683C135.615 18.2683 133.374 20 129.988 20C124.482 20 120 15.5122 120 10C120 4.4878 124.482 0 129.988 0C135.518 0.0243902 140 4.5122 140 10.0244ZM130.012 13.0732C131.693 13.0732 133.057 11.7073 133.057 10.0244C133.057 8.34146 131.693 6.97561 130.012 6.97561C128.331 6.97561 126.967 8.34146 126.967 10.0244C126.967 11.7073 128.331 13.0732 130.012 13.0732Z" fill="#FD9C24"/>
<circle cx="154" cy="10" r="10" fill="#222222"/>
<path d="M163.996 10.2999C163.999 10.2003 164 10.1003 164 10C164 9.89967 163.999 9.79969 163.996 9.70007C159.945 9.64938 157.668 9.37189 156.148 7.85183C154.628 6.33183 154.351 4.05453 154.3 0.00441197C154.2 0.00147752 154.1 0 154 0C153.9 0 153.8 0.00147752 153.7 0.00441197C153.649 4.05453 153.372 6.33183 151.852 7.85183C150.332 9.37189 148.055 9.64944 144.004 9.70007C144.001 9.79969 144 9.89967 144 10C144 10.1003 144.001 10.2003 144.004 10.2999C148.055 10.3506 150.332 10.6282 151.852 12.1482C153.372 13.6682 153.649 15.9455 153.7 19.9956C153.8 19.9985 153.9 20 154 20C154.1 20 154.2 19.9985 154.3 19.9956C154.351 15.9455 154.628 13.6682 156.148 12.1482C157.668 10.6282 159.945 10.3506 163.996 10.2999Z" fill="white"/>
<path fill-rule="evenodd" clip-rule="evenodd" d="M169.375 9.31839C174.744 6.9193 178.324 5.33767 180.115 4.5735C185.229 2.39166 186.292 2.01265 186.985 2.00013C187.137 1.99738 187.478 2.03611 187.698 2.21974C187.885 2.3748 187.936 2.58426 187.96 2.73128C187.985 2.87829 188.015 3.21319 187.991 3.47487C187.714 6.46165 186.515 13.7098 185.905 17.055C185.646 18.4705 185.138 18.9451 184.646 18.9916C183.577 19.0925 182.764 18.2667 181.729 17.5702C180.108 16.4805 179.192 15.8021 177.619 14.7387C175.801 13.5097 176.979 12.8343 178.015 11.7304C178.287 11.4415 182.999 7.04547 183.09 6.64668C183.101 6.59681 183.112 6.41089 183.004 6.31273C182.897 6.21456 182.738 6.24813 182.623 6.27483C182.46 6.31267 179.871 8.06807 174.855 11.541C174.12 12.0587 173.454 12.3109 172.858 12.2977C172.2 12.2831 170.935 11.9163 169.995 11.6028C168.842 11.2183 167.925 11.015 168.005 10.362C168.046 10.0218 168.503 9.67397 169.375 9.31839Z" fill="#24A1DE"/>
<path fill-rule="evenodd" clip-rule="evenodd" d="M192 20L193.413 14.8644C192.54 13.3579 192.081 11.6489 192.083 9.90985C192.086 4.44562 196.553 0 202.042 0C203.35 0.000231519 204.645 0.25697 205.854 0.755551C207.063 1.25413 208.161 1.98479 209.085 2.90578C210.01 3.82677 210.743 4.92005 211.244 6.12318C211.744 7.3263 212.001 8.6157 212 9.91771C211.998 15.3821 207.53 19.8281 202.042 19.8281H202.038C200.375 19.8281 198.739 19.4134 197.279 18.6219L192 20ZM197.523 16.8277L197.826 17.0062C199.101 17.758 200.556 18.1546 202.038 18.1544H202.042C206.604 18.1544 210.317 14.4591 210.319 9.91714C210.319 8.83525 210.106 7.76383 209.69 6.76405C209.275 5.76428 208.666 4.85573 207.897 4.09027C207.129 3.32482 206.217 2.71745 205.213 2.30285C204.209 1.88825 203.132 1.67454 202.045 1.67391C197.48 1.67391 193.767 5.36882 193.765 9.91047C193.763 11.4613 194.201 12.9811 195.03 14.2942L195.227 14.6059L194.391 17.6455L197.523 16.8277ZM207.059 12.2746C206.996 12.1713 206.831 12.1093 206.582 11.9854C206.333 11.8614 205.11 11.2624 204.882 11.1797C204.654 11.0969 204.488 11.0557 204.322 11.3036C204.156 11.5515 203.679 12.1093 203.534 12.2746C203.389 12.4398 203.244 12.4605 202.995 12.3366C202.746 12.2126 201.944 11.9511 200.994 11.1075C200.254 10.4508 199.755 9.63995 199.61 9.39203C199.464 9.14412 199.594 9.0101 199.719 8.88667C199.831 8.77567 199.968 8.59741 200.092 8.45281C200.216 8.30821 200.258 8.20489 200.341 8.0397C200.424 7.8745 200.382 7.7298 200.32 7.60584C200.258 7.48188 199.76 6.26294 199.553 5.76711C199.351 5.28429 199.146 5.34966 198.993 5.34203C198.848 5.33488 198.682 5.33331 198.516 5.33331C198.39 5.33659 198.266 5.36581 198.152 5.41915C198.038 5.47248 197.936 5.54877 197.853 5.6432C197.625 5.89112 196.982 6.49022 196.982 7.70901C196.982 8.92781 197.873 10.1054 197.998 10.2707C198.122 10.436 199.752 12.9371 202.248 14.0098C202.712 14.2085 203.185 14.3826 203.667 14.5314C204.263 14.7199 204.805 14.6935 205.234 14.6296C205.712 14.5585 206.706 14.0305 206.914 13.452C207.121 12.8734 207.121 12.3777 207.059 12.2744L207.059 12.2746Z" fill="#34D36A"/>
<path d="M227.249 9.15213C227.169 9.15222 227.092 9.12208 227.034 9.06797C226.976 9.01385 226.941 8.93993 226.938 8.86155C226.957 8.65378 226.931 8.44434 226.86 8.24747C226.79 8.0506 226.677 7.87092 226.529 7.72066C226.381 7.57039 226.202 7.45307 226.004 7.37666C225.806 7.30025 225.593 7.26655 225.38 7.27786C225.298 7.27304 225.221 7.23628 225.166 7.17566C225.111 7.11503 225.083 7.03551 225.088 6.95459C225.092 6.87367 225.13 6.79798 225.192 6.74416C225.254 6.69035 225.335 6.66282 225.417 6.66763C225.708 6.65886 225.998 6.70986 226.267 6.81736C226.537 6.92486 226.78 7.08646 226.982 7.29177C227.184 7.49708 227.34 7.74154 227.439 8.00941C227.539 8.27728 227.58 8.5626 227.56 8.84702C227.562 8.8871 227.556 8.92717 227.542 8.96494C227.529 9.00271 227.507 9.03743 227.48 9.06712C227.452 9.09681 227.419 9.12089 227.382 9.13797C227.345 9.15505 227.305 9.1648 227.264 9.16667L227.249 9.15213Z" fill="#7362EF"/>
<path d="M228.831 9.14334C228.864 9.15789 228.901 9.16582 228.938 9.16666C228.976 9.16684 229.014 9.15916 229.05 9.14412C229.085 9.12909 229.116 9.10702 229.142 9.07936C229.168 9.0517 229.188 9.01906 229.2 8.98354C229.212 8.94803 229.216 8.91044 229.213 8.8732C229.263 7.8961 228.914 6.93933 228.241 6.21242C227.501 5.46731 226.491 5.03416 225.427 5.00595C225.387 4.99784 225.347 4.99802 225.308 5.00648C225.268 5.01494 225.231 5.03149 225.199 5.055C225.167 5.07852 225.141 5.10847 225.121 5.14282C225.102 5.17717 225.091 5.21513 225.088 5.25415C225.085 5.29317 225.091 5.33234 225.104 5.36903C225.118 5.40571 225.14 5.43907 225.169 5.46684C225.197 5.4946 225.231 5.51615 225.269 5.53001C225.306 5.54388 225.346 5.54975 225.387 5.54723C226.308 5.56584 227.185 5.93861 227.826 6.58416C228.116 6.89408 228.34 7.25743 228.483 7.65279C228.627 8.04816 228.688 8.46754 228.663 8.88624C228.662 8.92222 228.669 8.958 228.682 8.99156C228.695 9.02513 228.715 9.05581 228.741 9.08185C228.766 9.10789 228.797 9.12879 228.831 9.14334Z" fill="#7362EF"/>
<path d="M230.564 10C230.483 10 230.405 9.96879 230.347 9.91323C230.29 9.85767 230.258 9.78232 230.258 9.70374C230.3 8.927 230.177 8.15008 229.894 7.42176C229.611 6.69344 229.175 6.02945 228.614 5.47148C228.08 4.96735 227.447 4.57111 226.752 4.30588C226.057 4.04065 225.315 3.91174 224.568 3.9267C224.486 3.9267 224.408 3.89549 224.351 3.83993C224.293 3.78437 224.261 3.70902 224.261 3.63045C224.261 3.55187 224.293 3.47652 224.351 3.42096C224.408 3.3654 224.486 3.33419 224.568 3.33419C225.393 3.32077 226.213 3.46533 226.98 3.75952C227.747 4.05371 228.447 4.49171 229.038 5.04825C229.652 5.6592 230.13 6.38463 230.444 7.18022C230.758 7.97582 230.901 8.82488 230.864 9.67553C230.864 9.7541 230.831 9.82946 230.774 9.88502C230.716 9.94057 230.638 9.97179 230.557 9.97179L230.564 10Z" fill="#7362EF"/>
<path d="M226.343 11.3873C226.249 11.4226 226.149 11.437 226.049 11.4296C225.271 11.198 224.564 10.7768 223.991 10.2043C223.419 9.63183 222.998 8.92607 222.768 8.15099C222.761 8.05057 222.775 7.94971 222.811 7.85537C222.846 7.76104 222.902 7.67547 222.973 7.60456L223.444 7.23826C223.584 7.10928 223.675 6.9359 223.701 6.74761C223.728 6.55932 223.688 6.36774 223.589 6.20545C223.561 6.16097 223.53 6.10913 223.495 6.05259C223.349 5.81147 223.152 5.48501 222.985 5.28071C222.78 5.0285 222.298 4.42803 222.298 4.42803C222.188 4.29319 222.032 4.20339 221.859 4.17571C221.687 4.14803 221.511 4.1844 221.363 4.27791C221.032 4.53663 220.745 4.84685 220.513 5.19664C220.312 5.41375 220.18 5.68539 220.133 5.97726C220.13 6.01521 220.13 6.05341 220.133 6.09136C220.133 6.20558 220.152 6.31905 220.187 6.42762C220.443 7.17674 220.776 7.89722 221.182 8.57734C221.534 9.20993 221.937 9.81247 222.388 10.3788C222.616 10.6631 222.857 10.9357 223.112 11.1954H223.142C223.4 11.4509 223.671 11.6915 223.956 11.916C224.524 12.3674 225.129 12.7692 225.765 13.117C226.449 13.521 227.173 13.855 227.924 14.1138C228.032 14.1473 228.144 14.1635 228.256 14.1618C228.294 14.1683 228.333 14.1683 228.371 14.1618C228.665 14.1147 228.94 13.9832 229.16 13.7835C229.467 13.5099 229.727 13.1897 229.932 12.8347C230.026 12.6891 230.062 12.5143 230.034 12.3437C230.007 12.1731 229.917 12.0187 229.782 11.91C229.782 11.904 229.209 11.4296 228.925 11.2194C228.627 11.0032 228.317 10.8027 227.997 10.619C227.836 10.5174 227.644 10.4755 227.456 10.5008C227.267 10.526 227.093 10.6168 226.965 10.7571L226.592 11.2255C226.522 11.2968 226.437 11.3521 226.343 11.3873Z" fill="#7362EF"/>
<path fill-rule="evenodd" clip-rule="evenodd" d="M232.87 1.95169C232.373 1.49165 230.361 0.0328114 225.883 0.0146517C225.883 0.0146517 220.599 -0.306163 218.006 2.0546C216.57 3.48921 216.067 5.58362 216.012 8.18046C215.958 10.7773 215.891 15.6441 220.587 16.9637V18.9794C220.587 18.9794 220.587 19.7966 221.096 19.96C221.634 20.1309 221.989 19.7303 222.451 19.2085C222.545 19.1017 222.644 18.9896 222.75 18.8765C223.09 18.5073 223.562 17.9685 223.914 17.5569C225.912 17.7434 227.927 17.5961 229.876 17.1211C229.935 17.1019 230.018 17.0807 230.122 17.0543C231.164 16.7888 234.251 16.0023 234.797 11.5703C235.433 6.55214 234.518 3.38025 232.87 1.95169ZM233.415 11.2131C232.957 14.8688 230.501 15.4402 229.617 15.6459C229.519 15.6687 229.44 15.6871 229.385 15.7046C227.708 16.1177 225.976 16.2668 224.253 16.1465C224.253 16.1465 222.217 18.5678 221.581 19.2336C221.545 19.2754 221.501 19.3082 221.45 19.3292C221.399 19.3503 221.345 19.359 221.29 19.3547C221.181 19.3244 221.151 19.1973 221.151 19.0097V15.6622C217.3 14.5893 217.395 10.6709 217.449 8.45668C217.451 8.38498 217.453 8.31501 217.454 8.24704C217.503 6.07999 217.909 4.30034 219.121 3.1018C221.296 1.1345 225.786 1.42505 225.786 1.42505C229.573 1.42505 231.391 2.58123 231.809 2.96258C233.221 4.16112 233.93 7.01823 233.415 11.2131Z" fill="#7362EF"/>
<path d="M258.431 14.1356C257.521 13.6889 254.937 12.0352 255.451 10.6614C255.585 10.3044 256.013 10.0375 256.62 9.60901C257.371 9.07495 257.475 8.07926 256.98 7.59719C256.746 7.36863 256.376 7.25553 255.877 7.36186C255.785 7.38238 255.048 7.60413 255.049 7.59719C255.123 5.84564 255.092 4.06267 253.887 2.6569C252.933 1.54421 251.443 1 250.001 1C248.562 1 247.068 1.54489 246.115 2.6569C244.91 4.06396 244.881 5.84488 244.953 7.59723C244.953 7.61808 244.215 7.3821 244.124 7.36186C243.623 7.25349 243.253 7.36714 243.019 7.59723C242.527 8.08037 242.633 9.07687 243.38 9.60901C243.98 10.0405 244.408 10.3067 244.545 10.6614C245.073 12.0314 242.474 13.6914 241.57 14.1356C240.874 14.4897 240.791 15.2269 241.57 15.5803C242.163 15.8494 243.031 15.943 243.296 16.2917C243.514 16.5784 243.391 16.9494 243.743 17.197C244.414 17.6643 245.591 17.3973 246.366 17.6582C247.662 18.0916 248.499 19 249.996 19C251.492 19 252.331 18.0933 253.627 17.66C254.4 17.4001 255.584 17.6679 256.25 17.1989C256.601 16.9529 256.478 16.5778 256.697 16.2954C256.961 15.9551 257.834 15.8605 258.431 15.5916C259.216 15.2376 259.131 14.4922 258.431 14.1356Z" fill="#FFFC00"/>
<path fill-rule="evenodd" clip-rule="evenodd" d="M247.657 19.386C248.279 19.6982 249.025 19.9991 249.994 20C250.826 20 251.606 19.7562 252.343 19.386C252.875 19.1185 253.387 18.7981 253.955 18.6078C254.171 18.535 254.456 18.5361 255.038 18.5066C255.487 18.4838 256.234 18.4391 256.835 18.0173C257.206 17.757 257.41 17.3781 257.517 16.9484C257.956 16.7809 258.421 16.6973 258.852 16.5033C259.498 16.2126 260.03 15.6244 259.999 14.8258C259.97 14.0811 259.46 13.5317 258.895 13.2445L258.889 13.2412L258.882 13.238C258.493 13.0466 257.704 12.5723 257.095 12.0108C256.859 11.7935 256.394 11.4004 256.393 11.0344C256.623 10.7882 256.933 10.6193 257.207 10.4262L257.21 10.4237C258.336 9.6229 258.741 7.90549 257.688 6.88079C257.258 6.46173 256.686 6.2882 256.08 6.32761C256.05 4.8904 255.785 3.32439 254.655 2.00623C253.471 0.627072 251.676 0 250.007 0H250.006C248.268 0 246.492 0.669467 245.345 2.00623C244.215 3.32439 243.95 4.8904 243.92 6.32761C243.314 6.2882 242.742 6.46173 242.312 6.88079C241.259 7.90549 241.664 9.6229 242.79 10.4237L242.793 10.4262C243.067 10.6193 243.377 10.7882 243.607 11.0344C243.606 11.4005 243.141 11.7934 242.905 12.0108C242.296 12.5723 241.507 13.0466 241.118 13.238L241.111 13.2412L241.105 13.2445C240.54 13.5317 240.03 14.0811 240.001 14.8258C239.97 15.6244 240.502 16.2126 241.148 16.5033C241.579 16.6973 242.044 16.7809 242.483 16.9484C242.59 17.3781 242.794 17.757 243.165 18.0173C243.766 18.4391 244.513 18.4838 244.962 18.5066C245.544 18.5361 245.829 18.535 246.045 18.6078C246.613 18.798 247.125 19.1185 247.657 19.386ZM250.006 18C251.207 17.9981 252.215 17.08 253.318 16.7116C253.792 16.5526 254.366 16.5312 254.754 16.5167C255.029 16.5064 255.319 16.5083 255.584 16.426C255.716 15.8738 256.059 15.4217 256.576 15.1764C256.906 15.0197 257.262 14.9295 257.611 14.8263C257.077 14.5241 256.353 14.0474 255.738 13.4815C255.349 13.1225 254.952 12.6818 254.693 12.1814C254.429 11.6727 254.262 11.0075 254.523 10.3109C254.683 9.88368 254.988 9.59052 255.23 9.39097C255.421 9.23365 255.659 9.06755 255.885 8.90955C256.076 8.77624 256.35 8.59691 256.289 8.32395C255.603 8.2387 254.972 8.94647 254.339 8.29249C254.153 8.10048 254.045 7.83357 254.058 7.54966C254.132 5.78384 254.058 4.38343 253.135 3.30756C252.409 2.46158 251.222 2 250.007 2L250.006 2C248.847 2 247.635 2.41006 246.865 3.30756C245.942 4.38343 245.868 5.78384 245.942 7.54966C246.012 9.02002 244.481 8.22818 243.711 8.32395C243.652 8.58651 243.933 8.78261 244.115 8.90955C244.341 9.06755 244.579 9.23365 244.77 9.39097C245.012 9.59052 245.317 9.88368 245.477 10.3109C245.738 11.0075 245.571 11.6727 245.307 12.1814C245.048 12.6818 244.651 13.1225 244.262 13.4815C243.647 14.0474 242.923 14.5241 242.389 14.8263C242.738 14.9294 243.094 15.0199 243.424 15.1764C243.947 15.4247 244.283 15.8715 244.416 16.426C244.68 16.5081 244.97 16.5064 245.244 16.5166L245.245 16.5167C245.633 16.5312 246.208 16.5526 246.682 16.7116C247.789 17.0814 248.8 18 250.006 18Z" fill="#222222"/>
<path fill-rule="evenodd" clip-rule="evenodd" d="M273.091 1.01507C275.546 0.934226 278.013 1.17866 280.393 1.74885C281.902 2.08428 283.236 3.09169 283.594 4.66814C284.133 7.21017 284.136 9.55749 283.601 12.1C283.259 13.6761 281.931 14.7221 280.415 15.0501C280.18 15.091 280.003 15.2984 280.009 15.524C280.007 16.618 280.01 17.712 280.008 18.806C280.027 18.9888 279.759 19.0538 279.632 18.9518C278.519 18.0648 277.553 16.9961 276.437 16.1043C276.163 15.8681 275.698 15.6585 275.328 15.6825C272.545 15.824 269.828 15.6352 267.139 14.9389C265.791 14.5583 264.707 13.4564 264.412 12.1539C263.864 9.59309 263.862 7.22317 264.409 4.66235C264.702 3.3348 265.821 2.21415 267.2 1.8499C269.121 1.35767 271.103 1.07906 273.091 1.01507Z" fill="#DA3545"/>
<path fill-rule="evenodd" clip-rule="evenodd" d="M270.246 4.27835C270.014 4.30898 269.825 4.52109 269.834 4.75257C269.833 5.32001 269.833 5.88745 269.834 6.45488C269.832 6.70438 270.067 6.92189 270.319 6.91919C270.878 6.92112 271.441 6.91919 272 6.91986C272.271 6.93078 272.543 7.09764 272.529 7.40602C272.529 8.92278 272.528 10.4396 272.529 11.9568C272.515 12.2211 272.758 12.4643 273.029 12.4531C273.671 12.4549 274.314 12.4538 274.956 12.4535C275.233 12.4724 275.49 12.2252 275.471 11.9523C275.471 10.4357 275.47 8.91922 275.471 7.40241C275.458 7.14256 275.699 6.91334 275.961 6.92099C276.527 6.91829 277.093 6.92189 277.658 6.91965C277.915 6.9336 278.161 6.72194 278.165 6.46704C278.168 5.89391 278.166 5.32076 278.166 4.74762C278.177 4.48416 277.923 4.25854 277.661 4.2734C276.633 4.27527 275.606 4.27466 274.578 4.27404C273.134 4.27317 271.69 4.2723 270.246 4.27835Z" fill="white"/>
<circle cx="298" cy="10" r="10" fill="#007AB9"/>
<path d="M299.069 8.75701V8.78054H299.053C299.055 8.77646 299.058 8.77234 299.061 8.76817C299.064 8.76449 299.067 8.76077 299.069 8.75701Z" fill="white"/>
<path fill-rule="evenodd" clip-rule="evenodd" d="M303.975 14.9275V10.8047C303.975 8.59693 302.796 7.56944 301.223 7.56944C299.953 7.56944 299.387 8.26822 299.069 8.75701V7.73825H296.678C296.711 8.41261 296.678 14.9273 296.678 14.9273H299.069V10.9122C299.069 10.6966 299.085 10.4833 299.148 10.3296C299.321 9.89965 299.714 9.4556 300.374 9.4556C301.24 9.4556 301.585 10.1152 301.585 11.081V14.9275H303.975ZM292.825 5.51482C292.825 4.80963 293.36 4.27289 294.178 4.27289C294.996 4.27289 295.498 4.80963 295.514 5.51482C295.514 6.20504 294.996 6.75729 294.162 6.75729H294.146C293.345 6.75729 292.825 6.20504 292.825 5.51482ZM295.357 14.9275H292.967V7.73825H295.357V14.9275Z" fill="white"/>
<path fill-rule="evenodd" clip-rule="evenodd" d="M317.833 2C314.612 2 312 4.50721 312 7.6V12.4C312 15.4928 314.612 18 317.833 18H326.167C329.388 18 332 15.4928 332 12.4V7.6C332 4.50721 329.388 2 326.167 2H317.833Z" fill="#FC0017"/>
<path fill-rule="evenodd" clip-rule="evenodd" d="M326.167 9.99999L319.5 6.79999V13.2L326.167 9.99999Z" fill="white"/>
<path d="M348.439 4H336V18H339.462V13.4452H346.096L349.123 18H353L349.662 13.4243C350.699 13.2564 351.445 12.8576 351.901 12.2279C352.357 11.5983 352.585 10.5907 352.585 9.24739V8.19795C352.585 7.4003 352.503 6.77065 352.357 6.28783C352.212 5.80509 351.963 5.3853 351.611 5.0075C351.238 4.65067 350.823 4.3988 350.326 4.23088C349.828 4.08395 349.206 4 348.439 4ZM347.879 10.3598H339.462V7.08543H347.879C348.356 7.08543 348.688 7.16941 348.854 7.31633C349.019 7.46325 349.123 7.73613 349.123 8.13495V9.31039C349.123 9.7302 349.019 10.003 348.854 10.1499C348.688 10.2968 348.356 10.3598 347.879 10.3598Z" fill="#222222"/>
<path d="M354 5C355.104 5 356 4.10457 356 3C356 1.89543 355.104 1 354 1C352.896 1 352 1.89543 352 3C352 4.10457 352.896 5 354 5Z" fill="#F41240"/>
<path d="M378.99 5.00773C377.819 5.00773 376.739 4.62902 375.871 3.99014C374.876 3.25776 374.161 2.18345 373.909 0.945208C373.846 0.639268 373.812 0.323546 373.809 0H370.464V8.92314L370.46 13.8108C370.46 15.1175 369.588 16.2254 368.38 16.6151C368.029 16.7282 367.651 16.7818 367.256 16.7606C366.753 16.7336 366.281 16.5854 365.871 16.3459C364.999 15.8365 364.407 14.9125 364.391 13.8554C364.366 12.2032 365.734 10.8562 367.425 10.8562C367.759 10.8562 368.08 10.9094 368.38 11.006V8.56712V7.69038C368.063 7.64461 367.741 7.62074 367.415 7.62074C365.564 7.62074 363.833 8.3719 362.595 9.72516C361.66 10.7478 361.099 12.0526 361.012 13.4207C360.899 15.218 361.573 16.9265 362.879 18.187C363.071 18.3721 363.273 18.5438 363.483 18.7023C364.604 19.5438 365.973 20 367.415 20C367.741 20 368.063 19.9765 368.38 19.9308C369.727 19.7359 370.971 19.1338 371.952 18.187C373.157 17.0239 373.823 15.4797 373.83 13.8362L373.813 6.53743C374.388 6.97052 375.017 7.32889 375.692 7.60705C376.742 8.03936 377.855 8.25845 379 8.25805V5.88682V5.00694C379.001 5.00773 378.991 5.00773 378.99 5.00773Z" fill="#222222"/>
<path fill-rule="evenodd" clip-rule="evenodd" d="M394 5C396.761 5 399 7.23858 399 10C399 12.7614 396.761 15 394 15C391.239 15 389 12.7614 389 10C389 7.23858 391.239 5 394 5ZM394 7.5C395.381 7.5 396.5 8.61929 396.5 10C396.5 11.3807 395.381 12.5 394 12.5C392.619 12.5 391.5 11.3807 391.5 10C391.5 8.61929 392.619 7.5 394 7.5Z" fill="url(#paint0_linear_1577_151902)"/>
<path fill-rule="evenodd" clip-rule="evenodd" d="M390.667 0C386.985 0 384 2.98477 384 6.66667V13.3333C384 17.0152 386.985 20 390.667 20H397.333C401.015 20 404 17.0152 404 13.3333V6.66667C404 2.98477 401.015 0 397.333 0H390.667ZM397.333 2.5H390.667C388.365 2.5 386.5 4.36548 386.5 6.66667V13.3333C386.5 15.6345 388.365 17.5 390.667 17.5H397.333C399.635 17.5 401.5 15.6345 401.5 13.3333V6.66667C401.5 5.63203 401.123 4.68546 400.499 3.95693C400.605 4.14111 400.667 4.35508 400.667 4.58333C400.667 5.27369 400.107 5.83333 399.417 5.83333C398.726 5.83333 398.167 5.27369 398.167 4.58333C398.167 3.89298 398.726 3.33333 399.417 3.33333C399.645 3.33333 399.859 3.39451 400.043 3.50137C399.315 2.87711 398.368 2.5 397.333 2.5Z" fill="url(#paint1_linear_1577_151902)"/>
<circle cx="418" cy="10" r="10" fill="#E60019"/>
<path d="M415.049 19.5575C414.812 19.4844 414.579 19.4028 414.35 19.313C414.262 18.5207 414.191 17.2848 414.384 16.4377C414.565 15.6561 415.552 11.4685 415.552 11.4685C415.552 11.4685 415.256 10.868 415.256 9.98766C415.256 8.59729 416.063 7.56067 417.066 7.56067C417.922 7.56067 418.333 8.20238 418.333 8.9675C418.333 9.51851 418.108 10.2469 417.871 11.0144C417.74 11.4386 417.605 11.8748 417.502 12.2995C417.264 13.2949 418.004 14.1094 418.983 14.1094C420.76 14.1094 422.126 12.2336 422.126 9.53517C422.126 7.14109 420.406 5.471 417.947 5.471C415.1 5.471 413.43 7.60181 413.43 9.80666C413.43 10.6623 413.759 11.5837 414.17 12.0856C414.253 12.1843 414.261 12.2748 414.236 12.3735C414.193 12.5562 414.116 12.8654 414.053 13.1188L414.053 13.1192C414.008 13.2991 413.97 13.4508 413.956 13.5088C413.915 13.6898 413.808 13.731 413.619 13.6405C412.385 13.0481 411.612 11.2217 411.612 9.7573C411.612 6.60633 413.899 3.71041 418.218 3.71041C421.682 3.71041 424.38 6.17853 424.38 9.48581C424.38 12.9329 422.208 15.7055 419.197 15.7055C418.185 15.7055 417.231 15.1789 416.91 14.5537L416.285 16.9313C416.068 17.7828 415.461 18.8856 415.049 19.5575Z" fill="white"/>
<ellipse cx="8" cy="8" rx="8" ry="8" transform="matrix(-1 8.42937e-08 8.42937e-08 1 448 4)" fill="#3AE7BC"/>
<ellipse cx="6.5" cy="6.5" rx="6.5" ry="6.5" transform="matrix(-1 8.42937e-08 8.42937e-08 1 452 0)" fill="#FF7188"/>
<path fill-rule="evenodd" clip-rule="evenodd" d="M445.5 13C441.91 13 439 10.0899 439 6.50003C439 5.62021 439.175 4.78122 439.491 4.01589C439.66 4.00534 439.829 3.99999 440 3.99999C444.418 3.99999 448 7.58171 448 12C448 12.1708 447.995 12.3403 447.984 12.5085C447.219 12.8252 446.38 13 445.5 13Z" fill="#2E57DB"/>
<path d="M470.5 20C473.538 20 476 17.5376 476 14.5C476 11.4624 473.538 9 470.5 9C467.462 9 465 11.4624 465 14.5C465 17.5376 467.462 20 470.5 20Z" fill="#97CF26"/>
<path d="M460.5 17C461.881 17 463 15.8807 463 14.5C463 13.1193 461.881 12 460.5 12C459.119 12 458 13.1193 458 14.5C458 15.8807 459.119 17 460.5 17Z" fill="#A169F7"/>
<path d="M471 7C472.657 7 474 5.65685 474 4C474 2.34315 472.657 1 471 1C469.343 1 468 2.34315 468 4C468 5.65685 469.343 7 471 7Z" fill="#FF6163"/>
<path d="M460.5 9C462.985 9 465 6.98528 465 4.5C465 2.01472 462.985 0 460.5 0C458.015 0 456 2.01472 456 4.5C456 6.98528 458.015 9 460.5 9Z" fill="#00AAFF"/>
<rect x="480" width="20" height="20" rx="6" fill="#BC0DA3"/>
<path d="M485.738 15L483 5.00067H484.796L486.9 12.6807L489.154 5L490.828 5.00067L493.091 12.7215L495.204 5.00256L497 5L494.261 14.9982L492.179 14.9961L489.992 7.52875L487.803 14.998L485.738 15Z" fill="white"/>
<path fill-rule="evenodd" clip-rule="evenodd" d="M504 6C504 2.68629 506.686 0 510 0H518C521.314 0 524 2.68629 524 6V14C524 17.3137 521.314 20 518 20H510C506.686 20 504 17.3137 504 14V6ZM522.693 7.67063C521.836 4.4699 517.248 2.91798 512.447 4.20444C507.646 5.4909 504.449 9.12864 505.307 12.3294C506.164 15.5301 510.752 17.082 515.553 15.7956C520.354 14.5091 523.551 10.8714 522.693 7.67063ZM508.204 11.553C507.813 10.0942 509.855 7.79787 513.172 6.90903C516.489 6.0202 519.405 6.98711 519.796 8.44698C520.187 9.90684 518.145 12.2021 514.828 13.091C511.511 13.9798 508.595 13.0118 508.204 11.553Z" fill="#005BFF"/>
<path fill-rule="evenodd" clip-rule="evenodd" d="M507.544 15.1046L507.084 19.2449C507.947 19.7259 508.942 20 510 20H518C520.555 20 522.736 18.4035 523.602 16.1538L521.634 11.9725C520.375 13.6518 518.21 15.0837 515.553 15.7955C512.493 16.6154 509.52 16.2825 507.544 15.1046ZM508.204 11.553C507.813 10.0942 509.855 7.79785 513.172 6.90902C516.489 6.02018 519.405 6.9871 519.796 8.44696C520.187 9.90683 518.145 12.2021 514.828 13.0909C511.511 13.9798 508.595 13.0118 508.204 11.553Z" fill="#F50057"/>
<path d="M512.447 4.20444C517.248 2.91798 521.836 4.4699 522.693 7.67063C523.551 10.8714 520.354 14.5091 515.553 15.7956C510.752 17.082 506.164 15.5301 505.307 12.3294C504.449 9.12864 507.646 5.49091 512.447 4.20444ZM513.172 6.90903C509.855 7.79787 507.813 10.0942 508.204 11.553C508.595 13.0118 511.511 13.9798 514.828 13.091C518.145 12.2021 520.187 9.90684 519.796 8.44698C519.405 6.98711 516.489 6.0202 513.172 6.90903Z" fill="white"/>
<path d="M547.575 10.225C547.575 9.56671 547.517 8.94171 547.417 8.33337H538V12.0917H543.392C543.15 13.325 542.442 14.3667 541.392 15.075V17.575H544.608C546.492 15.8334 547.575 13.2667 547.575 10.225Z" fill="#4285F4"/>
<path d="M538 20C540.7 20 542.958 19.1 544.608 17.575L541.392 15.075C540.492 15.675 539.35 16.0417 538 16.0417C535.392 16.0417 533.183 14.2833 532.392 11.9083H529.075V14.4833C530.717 17.75 534.092 20 538 20Z" fill="#34A853"/>
<path d="M532.392 11.9084C532.183 11.3084 532.075 10.6667 532.075 10.0001C532.075 9.33339 532.192 8.69173 532.392 8.09173V5.51672H529.075C528.392 6.86672 528 8.38339 528 10.0001C528 11.6167 528.392 13.1334 529.075 14.4834L532.392 11.9084Z" fill="#FBBC05"/>
<path d="M538 3.95834C539.475 3.95834 540.792 4.46667 541.833 5.45834L544.683 2.60834C542.958 0.991668 540.7 0 538 0C534.092 0 530.717 2.25 529.075 5.51667L532.392 8.09167C533.183 5.71667 535.392 3.95834 538 3.95834Z" fill="#EA4335"/>
<path d="M553.25 4C552.56 4 552 4.57563 552 5.28571V12.5714C552 14.465 553.492 16 555.333 16H564.917C565.607 16 566.167 15.4244 566.167 14.7143V7.42857C566.167 5.53502 564.674 4 562.833 4H553.25Z" fill="#4B92FB"/>
<path d="M567.9 6.65754L570.633 4.31442C571.176 3.84918 572 4.24617 572 4.97289V15.0271C572 15.7538 571.176 16.1508 570.633 15.6856L567.9 13.3425C567.33 12.8539 567 12.1302 567 11.367V8.63296C567 7.86982 567.33 7.14609 567.9 6.65754Z" fill="#4B92FB"/>
<g clip-path="url(#clip0_1577_151902)">
<path d="M586.574 1.27933C585.259 1.27933 584.01 1.55333 582.876 2.04333L580.83 0H580.825C578.665 0.946 576.934 2.686 576 4.85333L578.049 6.90067L578.048 6.90267C577.553 8.03867 577.259 9.276 577.259 10.5947C577.259 15.7413 581.429 19.9107 586.574 19.9107C591.717 19.9107 595.889 15.74 595.889 10.5947C595.889 5.45067 591.718 1.27933 586.574 1.27933Z" fill="#00B0EA"/>
<path d="M585.625 14.464C586.558 12.2967 588.291 10.5567 590.45 9.61002H590.451L582.877 2.04736L582.874 2.04669C580.713 2.99336 578.981 4.73269 578.048 6.90136L585.625 14.464Z" fill="#15374C"/>
<path d="M590.993 12.1934C589.738 12.7427 588.733 13.7554 588.189 15.0127L591.727 15.744L590.993 12.1934Z" fill="#15374C"/>
<path d="M590.993 12.1947C590.708 10.8367 590.451 9.61066 590.451 9.61066L590.449 9.61132C588.29 10.558 586.558 12.2973 585.624 14.4647L588.189 15.0127C588.734 13.7593 589.741 12.7427 590.993 12.1947Z" fill="white"/>
</g>
<rect x="600" width="20" height="20" rx="6" fill="#38B7EB"/>
<path fill-rule="evenodd" clip-rule="evenodd" d="M608.222 3C609.279 3 610.228 3.44453 610.879 4.15025C611.286 3.96239 611.741 3.85717 612.222 3.85717C613.94 3.85717 615.333 5.20032 615.333 6.85717C615.333 7.07171 615.31 7.28099 615.266 7.48278C616.854 7.99339 618 9.43913 618 11.1429C618 13.2731 616.209 15 614 15C613.996 15 613.991 15 613.987 15H606.571V14.9983C606.529 14.9994 606.487 15 606.444 15C603.99 15 602 13.0812 602 10.7143C602 8.95005 603.105 7.43481 604.685 6.77753C604.673 6.66278 604.667 6.54637 604.667 6.42856C604.667 4.53502 606.259 3 608.222 3Z" fill="white"/>
<circle cx="610.007" cy="9.5069" r="3.5" fill="#5FD634"/>
<path d="M609.5 8V9.5H611.5" stroke="white" stroke-linecap="round" stroke-linejoin="round"/>
<path fill-rule="evenodd" clip-rule="evenodd" d="M632.24 0.655955C632.81 0.549198 633.399 0.493367 634 0.493367C639.25 0.493367 643.507 4.74964 643.507 10C643.507 10.5994 643.451 11.1858 643.345 11.7544C643.763 12.5397 644 13.436 644 14.3877C644 17.4873 641.487 20 638.388 20C637.436 20 636.54 19.7631 635.754 19.3451C635.186 19.4512 634.599 19.5067 634 19.5067C628.75 19.5067 624.493 15.2504 624.493 10C624.493 9.3987 624.549 8.81042 624.656 8.24008C624.237 7.45484 624 6.55826 624 5.60625C624 2.51 626.51 0 629.606 0C630.558 0 631.455 0.237291 632.24 0.655955Z" fill="#00AFF0"/>
<path fill-rule="evenodd" clip-rule="evenodd" d="M629.187 12.8585C629.187 14.0977 630.688 15.7512 634.043 15.7512C637.236 15.7512 638.817 14.2088 638.817 12.1432C638.817 10.8094 638.204 9.39338 635.784 8.85301L633.576 8.36152C632.736 8.16976 631.768 7.91608 631.768 7.12202C631.768 6.32638 632.447 5.77045 633.672 5.77045C635.12 5.77045 635.64 6.35557 636.071 6.8393C636.375 7.18014 636.633 7.47063 637.14 7.47063C637.785 7.47063 638.349 7.09059 638.349 6.43719C638.349 4.91226 635.914 3.76801 633.849 3.76801C631.607 3.76801 629.219 4.7224 629.219 7.26426C629.219 8.48852 629.655 9.79089 632.059 10.3951L635.043 11.1418C635.946 11.365 636.172 11.8743 636.172 12.3337C636.172 13.0976 635.415 13.844 634.043 13.844C632.497 13.844 631.967 13.1552 631.519 12.5729C631.191 12.1466 630.907 11.7775 630.301 11.7775C629.655 11.7775 629.187 12.2229 629.187 12.8585Z" fill="white"/>
<path fill-rule="evenodd" clip-rule="evenodd" d="M648 4.91971L653.893 1L658 4.50845L652.08 8.2653L648 4.91971ZM668 4.91971L662.107 1L658 4.50845L663.92 8.2653L668 4.91971ZM658 11.2784L663.92 8.2653L668 10.8671L662.133 14.7882L658 11.2784ZM658 11.2784L652.08 8.2653L648 10.8671L653.867 14.7882L658 11.2784ZM652.133 15.0922V16.3816L658 20L663.893 16.4087V15.1153L662.16 16.2391L658 12.7293L653.867 16.2391L652.133 15.0922Z" fill="#0D64FA"/>
<rect x="672" width="20" height="20" rx="6" fill="#0C63D2"/>
<path fill-rule="evenodd" clip-rule="evenodd" d="M681.999 15C680.939 15 679.921 14.5861 679.171 13.8493C678.421 13.1126 678 12.1133 678 11.0714V4.78571C678 4.57733 678.084 4.37749 678.234 4.23014C678.384 4.08279 678.588 4 678.8 4C679.012 4 679.216 4.08279 679.366 4.23014C679.516 4.37749 679.6 4.57733 679.6 4.78571V7.94586C680.106 7.57085 680.695 7.31942 681.319 7.21234C681.943 7.10527 682.584 7.14562 683.19 7.33005C683.795 7.51449 684.347 7.83772 684.799 8.27304C685.252 8.70836 685.593 9.24328 685.794 9.8336C685.995 10.4239 686.05 11.0527 685.954 11.668C685.859 12.2833 685.616 12.8675 685.245 13.3723C684.874 13.877 684.387 14.2879 683.822 14.5709C683.258 14.8539 682.633 15.001 681.999 15ZM681.999 8.71428C681.525 8.71428 681.061 8.85252 680.666 9.11153C680.272 9.37053 679.964 9.73868 679.782 10.1694C679.601 10.6001 679.553 11.074 679.646 11.5313C679.738 11.9885 679.967 12.4085 680.303 12.7382C680.638 13.0678 681.066 13.2923 681.531 13.3833C681.997 13.4742 682.479 13.4275 682.918 13.2491C683.356 13.0707 683.731 12.7686 683.995 12.381C684.258 11.9934 684.399 11.5376 684.399 11.0714C684.399 10.4463 684.146 9.84673 683.696 9.40468C683.246 8.96263 682.636 8.71428 681.999 8.71428Z" fill="white"/>
<g clip-path="url(#clip1_1577_151902)">
<path d="M704.238 0.466309L704.137 0.528086C703.976 0.626359 703.824 0.736236 703.683 0.856295L703.975 0.649081H706.45L706.9 4.09091L704.65 6.36364L702.4 7.94336V9.76495C702.4 11.0372 703.058 12.217 704.136 12.8758L706.504 14.324L701.5 17.2728H700.535L698.736 16.1729C697.658 15.5141 697 14.3343 697 13.062V6.93664C697 5.66395 697.659 4.48386 698.737 3.82518L704.137 0.525849C704.17 0.505404 704.204 0.485559 704.238 0.466309Z" fill="url(#paint2_radial_1577_151902)"/>
<path d="M704.238 0.466309L704.137 0.528086C703.976 0.626359 703.824 0.736236 703.683 0.856295L703.975 0.649081H706.45L706.9 4.09091L704.65 6.36364L702.4 7.94336V9.76495C702.4 11.0372 703.058 12.217 704.136 12.8758L706.504 14.324L701.5 17.2728H700.535L698.736 16.1729C697.658 15.5141 697 14.3343 697 13.062V6.93664C697 5.66395 697.659 4.48386 698.737 3.82518L704.137 0.525849C704.17 0.505404 704.204 0.485559 704.238 0.466309Z" fill="url(#paint3_linear_1577_151902)"/>
<path d="M709.6 7.72729V9.7638C709.6 11.0361 708.942 12.2158 707.864 12.8747L702.464 16.1763C701.36 16.8517 699.985 16.8761 698.861 16.2494L704.136 19.4746C705.282 20.1753 706.718 20.1753 707.864 19.4746L713.264 16.1729C714.342 15.5141 715 14.3343 715 13.062V11.5909L714.55 10.9091L709.6 7.72729Z" fill="url(#paint4_radial_1577_151902)"/>
<path d="M709.6 7.72729V9.7638C709.6 11.0361 708.942 12.2158 707.864 12.8747L702.464 16.1763C701.36 16.8517 699.985 16.8761 698.861 16.2494L704.136 19.4746C705.282 20.1753 706.718 20.1753 707.864 19.4746L713.264 16.1729C714.342 15.5141 715 14.3343 715 13.062V11.5909L714.55 10.9091L709.6 7.72729Z" fill="url(#paint5_linear_1577_151902)"/>
<path d="M713.263 3.82516L707.863 0.525837C706.753 -0.152377 705.371 -0.173386 704.244 0.462805L704.137 0.52835C703.059 1.18704 702.4 2.3671 702.4 3.6398V7.95066L704.137 6.88948C705.282 6.18962 706.718 6.18962 707.863 6.88948L713.263 10.1888C714.307 10.8269 714.958 11.9543 714.998 13.1812C714.999 13.1415 715 13.1018 715 13.062V6.93662C715 5.66394 714.341 4.48385 713.263 3.82516Z" fill="url(#paint6_radial_1577_151902)"/>
<path d="M713.263 3.82516L707.863 0.525837C706.753 -0.152377 705.371 -0.173386 704.244 0.462805L704.137 0.52835C703.059 1.18704 702.4 2.3671 702.4 3.6398V7.95066L704.137 6.88948C705.282 6.18962 706.718 6.18962 707.863 6.88948L713.263 10.1888C714.307 10.8269 714.958 11.9543 714.998 13.1812C714.999 13.1415 715 13.1018 715 13.062V6.93662C715 5.66394 714.341 4.48385 713.263 3.82516Z" fill="url(#paint7_linear_1577_151902)"/>
</g>
<path d="M735.363 10.0941C735.39 12.9694 737.971 13.9263 738 13.9385C737.978 14.0059 737.588 15.302 736.64 16.6408C735.821 17.7983 734.971 18.9514 733.632 18.9753C732.316 18.9987 731.893 18.2209 730.389 18.2209C728.885 18.2209 728.415 18.9514 727.17 18.9987C725.877 19.0461 724.893 17.7472 724.067 16.5939C722.38 14.2351 721.09 9.92823 722.822 7.02106C723.682 5.57733 725.219 4.66316 726.888 4.63971C728.157 4.61633 729.355 5.46534 730.131 5.46534C730.906 5.46534 732.362 4.44434 733.892 4.59427C734.533 4.62007 736.332 4.84446 737.486 6.47892C737.393 6.5347 735.34 7.69023 735.363 10.0941M732.89 3.03366C733.576 2.23051 734.038 1.1125 733.912 0C732.923 0.0384351 731.727 0.637322 731.017 1.43999C730.382 2.15086 729.825 3.28856 729.975 4.37901C731.078 4.4615 732.204 3.83729 732.89 3.03366" fill="#333338"/>
<g clip-path="url(#clip2_1577_151902)">
<rect x="744" width="20" height="20" rx="6" fill="#FD9C24"/>
<path d="M761 10.0171C761 12.4244 759.875 13.5512 758.459 13.5512C757.641 13.5512 756.924 13.1244 756.515 12.4756C755.867 13.1244 754.998 13.5341 754.009 13.5341C752.065 13.5341 750.496 11.9634 750.496 10.0171C750.496 8.07073 752.065 6.5 754.009 6.5C755.952 6.5 757.521 8.07073 757.521 10.0171V11.161C757.521 11.7415 757.931 12.1512 758.459 12.1512C759.09 12.1512 759.602 11.622 759.602 10.0171C759.602 6.92683 757.095 4.41707 754.009 4.41707C750.922 4.41707 748.398 6.92683 748.398 10.0171C748.398 13.1073 750.905 15.6171 753.991 15.6171C755.782 15.6171 757.01 14.7293 757.01 14.7293L757.931 15.7878C757.931 15.7878 756.362 17 753.991 17C750.138 17 747 13.8585 747 10C747 6.14146 750.138 3 753.991 3C757.862 3.01707 761 6.15854 761 10.0171ZM754.009 12.1512C755.185 12.1512 756.14 11.1951 756.14 10.0171C756.14 8.83902 755.185 7.88293 754.009 7.88293C752.832 7.88293 751.877 8.83902 751.877 10.0171C751.877 11.1951 752.832 12.1512 754.009 12.1512Z" fill="#FD9C24"/>
<path d="M761 10.0171C761 12.4244 759.875 13.5512 758.459 13.5512C757.641 13.5512 756.924 13.1244 756.515 12.4756C755.867 13.1244 754.998 13.5341 754.009 13.5341C752.065 13.5341 750.496 11.9634 750.496 10.0171C750.496 8.07073 752.065 6.5 754.009 6.5C755.952 6.5 757.521 8.07073 757.521 10.0171V11.161C757.521 11.7415 757.931 12.1512 758.459 12.1512C759.09 12.1512 759.602 11.622 759.602 10.0171C759.602 6.92683 757.095 4.41707 754.009 4.41707C750.922 4.41707 748.398 6.92683 748.398 10.0171C748.398 13.1073 750.905 15.6171 753.991 15.6171C755.782 15.6171 757.01 14.7293 757.01 14.7293L757.931 15.7878C757.931 15.7878 756.362 17 753.991 17C750.138 17 747 13.8585 747 10C747 6.14146 750.138 3 753.991 3C757.862 3.01707 761 6.15854 761 10.0171ZM754.009 12.1512C755.185 12.1512 756.14 11.1951 756.14 10.0171C756.14 8.83902 755.185 7.88293 754.009 7.88293C752.832 7.88293 751.877 8.83902 751.877 10.0171C751.877 11.1951 752.832 12.1512 754.009 12.1512Z" fill="white"/>
</g>
<path d="M777 19V2.7637L780 1V17.5901L777 19Z" fill="#F07E2A"/>
<path d="M776 6V8.2569C776 8.2569 771.224 8.66335 770.918 12.5913C770.918 12.5913 770.248 16.0207 776 17.1043V19C776 19 767.916 18.099 768.001 12.5008C768.001 12.5008 767.917 6.81289 776 6Z" fill="#AEAFB3"/>
<path d="M781 6V7.97891C781 7.97891 782.6 7.95767 783.938 9.05039L782.471 9.64142L788 11V6.76241L786.113 7.80973C786.113 7.80973 784.502 6.14941 781 6Z" fill="#AEAFB3"/>
<g clip-path="url(#clip3_1577_151902)">
<rect x="792" width="20" height="20" rx="4" fill="#3398DC"/>
<path d="M799 5H797V15H803V13H799V5Z" fill="white"/>
<path d="M805 5H807V15H805V5Z" fill="white"/>
</g>
<g clip-path="url(#clip4_1577_151902)">
<rect x="816" width="20" height="20" rx="4" fill="#FF4500"/>
<path fill-rule="evenodd" clip-rule="evenodd" d="M830.97 9.50846L830.885 9.31955L830.742 9.20003C830.554 9.04582 829.791 9.21081 829.534 8.96484C829.355 8.68906 829.263 8.36501 829.271 8.03571C829.26 7.63119 829.161 7.23401 828.982 6.87139C828.734 6.39059 828.382 5.97234 827.95 5.64817C827.518 5.324 827.018 5.10237 826.489 5H824.231C823.35 5.02862 822.516 5.40544 821.911 6.04824C821.306 6.69104 820.979 7.54767 821.001 8.43127V11.5757C820.98 12.4584 821.307 13.3138 821.912 13.9553C822.517 14.5968 823.35 14.9724 824.231 15H827.939C829.714 15 830.969 13.4579 830.98 11.5757L831 9.66113L830.97 9.50846ZM823.945 7.30935H826.495C826.676 7.33775 826.841 7.43013 826.96 7.56982C827.08 7.70951 827.145 7.88731 827.145 8.07117C827.145 8.25503 827.08 8.43284 826.96 8.57253C826.841 8.71222 826.676 8.8046 826.495 8.83299H823.945C823.764 8.8046 823.599 8.71222 823.48 8.57253C823.361 8.43284 823.295 8.25503 823.295 8.07117C823.295 7.88731 823.361 7.70951 823.48 7.56982C823.599 7.43013 823.764 7.33775 823.945 7.30935V7.30935ZM828.06 12.6984H823.939C823.763 12.6596 823.606 12.5618 823.493 12.4211C823.381 12.2805 823.319 12.1054 823.319 11.925C823.319 11.7445 823.381 11.5695 823.493 11.4288C823.606 11.2882 823.763 11.1904 823.939 11.1516H828.06C828.236 11.1911 828.392 11.2891 828.504 11.4297C828.617 11.5703 828.678 11.745 828.678 11.925C828.678 12.105 828.617 12.2797 828.504 12.4203C828.392 12.5608 828.236 12.6589 828.06 12.6984V12.6984Z" fill="white"/>
</g>
<path d="M164 34.2999C159.947 34.3504 157.669 34.6276 156.148 36.1482C154.628 37.6687 154.35 39.9471 154.3 44C159.587 43.8444 163.844 39.5868 164 34.2999Z" fill="white"/>
<path d="M153.7 44C153.65 39.9471 153.372 37.6687 151.852 36.1482C150.331 34.6276 148.053 34.3504 144 34.2999C144.156 39.5868 148.413 43.8444 153.7 44Z" fill="white"/>
<path d="M164 33.7001C163.844 28.4132 159.587 24.1556 154.3 24C154.35 28.0529 154.628 30.3313 156.148 31.8518C157.669 33.3724 159.947 33.6496 164 33.7001Z" fill="white"/>
<path d="M153.7 24C148.413 24.1556 144.156 28.4132 144 33.7001C148.053 33.6496 150.331 33.3724 151.852 31.8518C153.372 30.3313 153.65 28.0529 153.7 24Z" fill="white"/>
<path d="M348.439 28H336V42H339.462V37.4452H346.096L349.123 42H353L349.662 37.4243C350.699 37.2564 351.445 36.8576 351.901 36.2279C352.357 35.5983 352.585 34.5907 352.585 33.2474V32.1979C352.585 31.4003 352.503 30.7706 352.357 30.2878C352.212 29.8051 351.963 29.3853 351.611 29.0075C351.238 28.6507 350.823 28.3988 350.326 28.2309C349.828 28.084 349.206 28 348.439 28ZM347.879 34.3598H339.462V31.0854H347.879C348.356 31.0854 348.688 31.1694 348.854 31.3163C349.019 31.4632 349.123 31.7361 349.123 32.1349V33.3104C349.123 33.7302 349.019 34.003 348.854 34.1499C348.688 34.2968 348.356 34.3598 347.879 34.3598Z" fill="white"/>
<path d="M354 29C355.104 29 356 28.1046 356 27C356 25.8954 355.104 25 354 25C352.896 25 352 25.8954 352 27C352 28.1046 352.896 29 354 29Z" fill="#F41240"/>
<path d="M378.99 29.0077C377.819 29.0077 376.739 28.629 375.871 27.9901C374.876 27.2578 374.161 26.1834 373.909 24.9452C373.846 24.6393 373.812 24.3235 373.809 24H370.464V32.9231L370.46 37.8108C370.46 39.1175 369.588 40.2254 368.38 40.6151C368.029 40.7282 367.651 40.7818 367.256 40.7606C366.753 40.7336 366.281 40.5854 365.871 40.3459C364.999 39.8365 364.407 38.9125 364.391 37.8554C364.366 36.2032 365.734 34.8562 367.425 34.8562C367.759 34.8562 368.08 34.9094 368.38 35.006V32.5671V31.6904C368.063 31.6446 367.741 31.6207 367.415 31.6207C365.564 31.6207 363.833 32.3719 362.595 33.7252C361.66 34.7478 361.099 36.0526 361.012 37.4207C360.899 39.218 361.573 40.9265 362.879 42.187C363.071 42.3721 363.273 42.5438 363.483 42.7023C364.604 43.5438 365.973 44 367.415 44C367.741 44 368.063 43.9765 368.38 43.9308C369.727 43.7359 370.971 43.1338 371.952 42.187C373.157 41.0239 373.823 39.4797 373.83 37.8362L373.813 30.5374C374.388 30.9705 375.017 31.3289 375.692 31.607C376.742 32.0394 377.855 32.2584 379 32.2581V29.8868V29.0069C379.001 29.0077 378.991 29.0077 378.99 29.0077Z" fill="white"/>
<defs>
<linearGradient id="paint0_linear_1577_151902" x1="399.001" y1="-7.98671e-08" x2="388.999" y2="20" gradientUnits="userSpaceOnUse">
<stop stop-color="#9E42B4"/>
<stop offset="0.067" stop-color="#9E42B4"/>
<stop offset="0.473" stop-color="#E5566F"/>
<stop offset="1" stop-color="#FDC76D"/>
</linearGradient>
<linearGradient id="paint1_linear_1577_151902" x1="399.001" y1="-7.98671e-08" x2="388.999" y2="20" gradientUnits="userSpaceOnUse">
<stop stop-color="#9E42B4"/>
<stop offset="0.067" stop-color="#9E42B4"/>
<stop offset="0.473" stop-color="#E5566F"/>
<stop offset="1" stop-color="#FDC76D"/>
</linearGradient>
<radialGradient id="paint2_radial_1577_151902" cx="0" cy="0" r="1" gradientUnits="userSpaceOnUse" gradientTransform="translate(703.038 3.9265) rotate(110.34) scale(15.1477 26.2206)">
<stop offset="0.06441" stop-color="#AE7FE2"/>
<stop offset="1" stop-color="#0078D4"/>
</radialGradient>
<linearGradient id="paint3_linear_1577_151902" x1="703.08" y1="16.3039" x2="700.906" y2="12.5802" gradientUnits="userSpaceOnUse">
<stop stop-color="#114A8B"/>
<stop offset="1" stop-color="#0078D4" stop-opacity="0"/>
</linearGradient>
<radialGradient id="paint4_radial_1577_151902" cx="0" cy="0" r="1" gradientUnits="userSpaceOnUse" gradientTransform="translate(699.894 15.6142) rotate(-8.45047) scale(13.9756 9.32109)">
<stop offset="0.133928" stop-color="#D59DFF"/>
<stop offset="1" stop-color="#5E438F"/>
</radialGradient>
<linearGradient id="paint5_linear_1577_151902" x1="713.361" y1="10.6258" x2="711.034" y2="13.9288" gradientUnits="userSpaceOnUse">
<stop stop-color="#493474"/>
<stop offset="1" stop-color="#8C66BA" stop-opacity="0"/>
</linearGradient>
<radialGradient id="paint6_radial_1577_151902" cx="0" cy="0" r="1" gradientUnits="userSpaceOnUse" gradientTransform="translate(713.675 11.1382) rotate(-165.634) scale(11.2221 19.0589)">
<stop offset="0.0584996" stop-color="#50E6FF"/>
<stop offset="1" stop-color="#436DCD"/>
</radialGradient>
<linearGradient id="paint7_linear_1577_151902" x1="702.839" y1="0.480278" x2="706.219" y2="0.480278" gradientUnits="userSpaceOnUse">
<stop stop-color="#2D3F80"/>
<stop offset="1" stop-color="#436DCD" stop-opacity="0"/>
</linearGradient>
<clipPath id="clip0_1577_151902">
<rect width="20" height="20" fill="white" transform="translate(576)"/>
</clipPath>
<clipPath id="clip1_1577_151902">
<rect width="20" height="20" fill="white" transform="translate(696)"/>
</clipPath>
<clipPath id="clip2_1577_151902">
<rect width="20" height="20" fill="white" transform="translate(744)"/>
</clipPath>
<clipPath id="clip3_1577_151902">
<rect width="20" height="20" fill="white" transform="translate(792)"/>
</clipPath>
<clipPath id="clip4_1577_151902">
<rect width="20" height="20" fill="white" transform="translate(816)"/>
</clipPath>
</defs>
</svg>