<svg width="0" height="0" class="hidden">
    <symbol xmlns="http://www.w3.org/2000/svg" viewBox="0 0 26 26" id="phone-26-26">
        <path d="M1173,405a13,13,0,1,1,13-13A13,13,0,0,1,1173,405Zm0-24a11,11,0,1,0,11,11A11,11,0,0,0,1173,381Zm4.86,15.868a0.864,0.864,0,0,1-.58.664,4.611,4.611,0,0,1-1.58.457c-1.55-.032-2.98-1.273-4-2.3a15.573,15.573,0,0,1-1.73-2.105,13.875,13.875,0,0,1-1.26-2.333c-0.54-1.267-1.08-2.948-.34-4.115a3.966,3.966,0,0,1,1.25-.949,1.094,1.094,0,0,1,.96-0.094l0.46,0.123a0.7,0.7,0,0,1,.63.709c0.04,0.91.06,1.563,0.13,2.311,0.03,0.311-.1.35-0.4,0.447l-0.49.156c-0.37.121-.55,0.282-0.46,0.646a8.313,8.313,0,0,0,1.09,2.325,9.268,9.268,0,0,0,1.81,1.964,0.64,0.64,0,0,0,.88-0.014c0.12-.089.24-0.171,0.4-0.284a0.475,0.475,0,0,1,.65-0.079c0.77,0.416,1.5.9,2.3,1.247a0.618,0.618,0,0,1,.38.824Z" transform="translate(-1160 -379)" fill-rule="evenodd"/>
        <circle cx="15" cy="15" r="8" opacity="0.1"/>
    </symbol>
    <symbol xmlns="http://www.w3.org/2000/svg" viewBox="0 0 26 26" id="login-26-26">
        <path d="M1173,405a13,13,0,1,1,13-13A13,13,0,0,1,1173,405Zm5.01-3.218a7.948,7.948,0,0,0-10.03,0A10.933,10.933,0,0,0,1178.01,401.782ZM1173,381a10.994,10.994,0,0,0-6.77,19.661,9.942,9.942,0,0,1,13.54,0A10.994,10.994,0,0,0,1173,381Zm0,16a6,6,0,1,1,6-6A6,6,0,0,1,1173,397Zm0-10a4,4,0,1,0,4,4A4,4,0,0,0,1173,387Z" transform="translate(-1160 -379)" fill-rule="evenodd"/>
        <path d="M1176,404h-4l-2-1a7.348,7.348,0,0,1,6-3c2.75-.062,3,1,3,1v1Zm-2-8a4,4,0,1,1,4-4A4,4,0,0,1,1174,396Z" transform="translate(-1160 -379)" fill-rule="evenodd" opacity="0.1"/>
    </symbol>
</svg>