<svg width="0" height="0" class="hidden">
    <symbol xmlns="http://www.w3.org/2000/svg" viewBox="0 0 12 12" id="plus-12-12">
        <path fill-rule="evenodd" clip-rule="evenodd" d="M7 1C7 0.447715 6.55228 0 6 0C5.44772 0 5 0.447715 5 1V5H1C0.447716 5 0 5.44771 0 6C0 6.55228 0.447716 7 1 7H5V11C5 11.5523 5.44772 12 6 12C6.55228 12 7 11.5523 7 11V7H11C11.5523 7 12 6.55228 12 6C12 5.44772 11.5523 5 11 5H7V1Z" />
    </symbol>

    <symbol viewBox="0 0 12 8" xmlns="http://www.w3.org/2000/svg" id="equal-12-8">
        <path fill-rule="evenodd" clip-rule="evenodd" d="M11 2C11.5523 2 12 1.55229 12 1C12 0.447716 11.5523 0 11 0H1C0.447716 0 0 0.447715 0 1C0 1.55228 0.447716 2 1 2L11 2ZM11 8C11.5523 8 12 7.55229 12 7C12 6.44772 11.5523 6 11 6L1 6C0.447716 6 0 6.44772 0 7C0 7.55229 0.447716 8 1 8L11 8Z" />
    </symbol>
</svg>